<?xml version="1.0" encoding="UTF-8"?>
<!-- Generator: visioncortex VTracer 0.6.12 -->
<svg version="1.1" xmlns="http://www.w3.org/2000/svg" width="1254" height="1254">
<path d="M0 0 C2.21 1.95 4.4 3.93 6.56 5.94 C6.98 6.32 6.98 6.32 9.08 8.24 C32.82 30.94 49.86 65.84 50.83 98.85 C50.89 102.44 50.89 106.03 50.88 109.62 C50.87 110 50.87 110 50.87 111.91 C50.82 122.87 50.39 133.29 47.56 143.94 C47.48 144.27 47.48 144.27 47.06 145.97 C41.76 167.21 31.95 187.37 17.56 203.94 C16.89 204.73 16.21 205.53 15.52 206.35 C-6.12 231.22 -36.12 249.6 -69.44 252.94 C-71.42 252.94 -73.4 252.94 -75.44 252.94 C-75.44 237.76 -75.44 222.58 -75.44 206.94 C-70.49 205.62 -65.54 204.3 -60.44 202.94 C-35.27 193.31 -15.84 175.46 -4.44 150.94 C5.74 126.83 6.59 99.91 -3.04 75.49 C-13.32 50.67 -31.7 32.41 -56.44 21.94 C-82.47 12.83 -108.77 14.13 -133.62 26.03 C-143.22 30.82 -150.86 37.47 -158.44 44.94 C-158.8 45.3 -158.8 45.3 -160.66 47.12 C-178.96 66.36 -185.36 91.63 -184.78 117.51 C-183.65 145.02 -170.17 167.13 -150.56 185.69 C-138.06 196.58 -123.25 202.6 -107.44 206.94 C-104.47 233.16 -106.4 251.78 -117.44 275.94 C-118.44 278.22 -119.45 280.51 -120.45 282.8 C-135.51 316.6 -153.9 348.12 -178.44 375.94 C-179.19 376.81 -179.95 377.67 -180.73 378.57 C-189.59 388.58 -198.97 397.62 -209.44 405.94 C-211.29 407.48 -213.15 409.02 -215 410.56 C-223.96 417.87 -233.52 424.01 -243.44 429.94 C-244.55 430.61 -245.67 431.28 -246.82 431.98 C-266.19 443.39 -287.5 451 -309.44 455.81 C-310.31 456 -311.18 456.19 -312.07 456.39 C-327.68 459.61 -342.9 460.24 -358.77 460.23 C-360.98 460.23 -363.18 460.24 -365.39 460.25 C-371.34 460.27 -377.29 460.27 -383.24 460.27 C-386.98 460.27 -390.71 460.28 -394.44 460.28 C-406.83 460.3 -419.22 460.31 -431.61 460.31 C-432.28 460.31 -432.94 460.31 -433.63 460.31 C-434.29 460.31 -434.96 460.31 -435.65 460.31 C-446.41 460.31 -457.18 460.33 -467.95 460.35 C-479.07 460.38 -490.18 460.4 -501.3 460.4 C-507.52 460.39 -513.74 460.4 -519.95 460.42 C-578.8 460.61 -633.28 451.99 -677.71 409.78 C-679.64 407.86 -681.55 405.91 -683.44 403.94 C-684.28 403.09 -685.13 402.25 -686 401.38 C-686.8 400.57 -687.61 399.77 -688.44 398.94 C-688.95 398.44 -689.46 397.95 -689.99 397.44 C-726.37 361.97 -742.75 309.9 -743.45 260.19 C-743.27 207.59 -721.86 158.08 -687.44 118.94 C-687.13 118.57 -687.13 118.57 -685.55 116.71 C-681.56 112.03 -677.24 107.73 -672.88 103.4 C-661.44 91.85 -661.44 91.85 -661.44 86.94 C-662.1 86.94 -662.76 86.94 -663.44 86.94 C-664.95 85.4 -664.95 85.4 -666.69 83.31 C-668.93 80.65 -671.19 78.18 -673.75 75.81 C-678.77 70.44 -678.87 65.01 -678.77 57.92 C-678.15 52.35 -675.48 48.49 -672.44 43.94 C-671.78 43.94 -671.12 43.94 -670.44 43.94 C-670.21 43.39 -669.99 42.84 -669.76 42.27 C-668.04 39.23 -665.72 36.99 -663.24 34.58 C-662.73 34.07 -662.21 33.56 -661.68 33.04 C-660.04 31.42 -658.4 29.8 -656.75 28.19 C-654.6 26.07 -652.45 23.95 -650.3 21.83 C-649.78 21.32 -649.27 20.81 -648.73 20.28 C-645.29 16.85 -642.01 13.32 -638.88 9.6 C-633.6 3.52 -633.6 3.52 -630.44 1.94 C-625.89 1.82 -623.6 3.4 -620.38 6.36 C-618.81 7.9 -617.24 9.46 -615.69 11.03 C-614.84 11.88 -613.98 12.73 -613.1 13.61 C-610.75 15.93 -608.42 18.27 -606.09 20.61 C-603.65 23.06 -601.2 25.5 -598.75 27.95 C-594.64 32.05 -590.54 36.16 -586.44 40.28 C-581.71 45.04 -576.96 49.78 -572.2 54.51 C-568.11 58.58 -564.03 62.65 -559.96 66.74 C-557.53 69.18 -555.1 71.61 -552.66 74.04 C-549.93 76.74 -547.23 79.47 -544.53 82.19 C-543.72 82.99 -542.91 83.79 -542.08 84.62 C-536.71 90.09 -536.71 90.09 -535.35 94.33 C-535.47 97.9 -536.6 99.2 -538.94 101.88 C-539.76 102.82 -540.58 103.76 -541.43 104.73 C-545.47 109.1 -549.68 113.31 -553.94 117.46 C-557.7 121.13 -561.2 124.91 -564.63 128.89 C-567.81 132.49 -571.18 135.9 -574.56 139.31 C-575.25 140.02 -575.94 140.73 -576.65 141.46 C-577.33 142.14 -578 142.82 -578.7 143.52 C-579.29 144.13 -579.89 144.74 -580.51 145.37 C-584.29 148.45 -588.09 149.24 -592.88 149.31 C-593.78 149.34 -594.69 149.37 -595.62 149.4 C-602.29 148.31 -606.8 142.83 -611.31 138.19 C-611.91 137.59 -612.5 136.98 -613.11 136.36 C-614.56 134.89 -616 133.42 -617.44 131.94 C-621.29 133.52 -623.73 135.99 -626.62 138.94 C-627.51 139.82 -628.39 140.71 -629.29 141.62 C-631.44 143.94 -631.44 143.94 -632.44 145.94 C-633.1 145.94 -633.76 145.94 -634.44 145.94 C-634.7 146.53 -634.95 147.12 -635.22 147.72 C-636.54 150.12 -637.93 151.53 -639.94 153.38 C-649.32 162.55 -656.77 173.68 -663.44 184.94 C-663.64 185.28 -663.64 185.28 -664.67 187.02 C-684.27 220.7 -690.51 259.73 -681.56 297.66 C-680.62 301.13 -679.57 304.53 -678.44 307.94 C-678.03 309.19 -677.62 310.44 -677.2 311.72 C-670.55 331.14 -659.5 348.08 -645.44 362.94 C-644.73 363.7 -644.02 364.46 -643.29 365.25 C-618.71 390.85 -584.38 403.1 -549.44 404.12 C-544.12 404.22 -538.79 404.22 -533.46 404.21 C-531.44 404.22 -529.41 404.22 -527.39 404.23 C-521.95 404.24 -516.51 404.24 -511.07 404.24 C-506.5 404.24 -501.93 404.24 -497.36 404.25 C-486.56 404.26 -475.77 404.26 -464.97 404.25 C-453.9 404.25 -442.83 404.26 -431.75 404.28 C-422.19 404.3 -412.62 404.3 -403.06 404.3 C-397.37 404.3 -391.68 404.3 -385.99 404.32 C-380.64 404.33 -375.28 404.33 -369.93 404.31 C-367.98 404.31 -366.04 404.31 -364.09 404.32 C-336.54 404.43 -310.3 400.18 -285.44 387.94 C-284.74 387.6 -284.05 387.26 -283.33 386.91 C-272.99 381.82 -263.55 375.98 -254.44 368.94 C-253.52 368.23 -252.6 367.52 -251.65 366.8 C-239.72 357.31 -228.77 347 -219.44 334.94 C-217.94 333.14 -216.44 331.35 -214.94 329.56 C-192.16 301.68 -174.8 267.02 -163.44 232.94 C-164.13 232.7 -164.83 232.47 -165.55 232.22 C-168.96 230.71 -171.72 228.67 -174.62 226.38 C-175.2 225.93 -175.77 225.48 -176.35 225.02 C-206.61 201.12 -225.52 169.09 -231.69 131 C-236.41 90.7 -226.04 52.84 -200.92 21.02 C-195.25 13.99 -189.42 7.66 -182.44 1.94 C-181.45 1.1 -180.47 0.27 -179.45 -0.59 C-128.68 -42.76 -50.35 -43.12 0 0 Z " fill="#0DF3FC" transform="translate(1004.4375,569.0625)"/>
<path d="M0 0 C3.91 3.42 7.55 7.08 11.18 10.79 C12.2 11.82 13.23 12.85 14.26 13.88 C16.93 16.57 19.59 19.27 22.25 21.98 C24.96 24.72 27.67 27.46 30.39 30.2 C35.17 35.01 39.93 39.83 44.69 44.66 C46.34 46.34 48.03 47.98 49.73 49.61 C52 52 52 52 53 55 C53.66 55 54.32 55 55 55 C56.34 56.36 56.34 56.36 57.93 58.31 C62.2 63.33 66.86 67.92 71.57 72.52 C73.71 74.62 75.84 76.73 77.98 78.84 C81.92 82.74 85.88 86.64 89.85 90.52 C92.63 93.25 95.4 95.98 98.16 98.72 C99.2 99.75 100.24 100.78 101.29 101.8 C117.76 117.8 127.84 138.05 128.47 161.18 C128.68 187.93 119.93 210.2 101.4 229.74 C98.6 232.56 95.78 235.35 92.94 238.12 C91.03 240 89.12 241.88 87.21 243.76 C86.38 244.57 85.55 245.39 84.69 246.23 C82.59 248.39 80.62 250.57 78.66 252.84 C75.03 257.02 71.2 260.93 67.27 264.82 C66.56 265.53 65.85 266.24 65.12 266.97 C62.87 269.21 60.62 271.45 58.38 273.69 C56.86 275.2 55.34 276.71 53.83 278.22 C51.05 280.99 48.27 283.76 45.49 286.53 C44.89 287.13 44.29 287.72 43.67 288.34 C42.17 289.83 40.67 291.32 39.17 292.82 C36.88 295.12 34.72 297.51 32.56 299.94 C28.71 304.22 24.7 308.31 20.6 312.36 C20.12 312.84 19.64 313.31 19.14 313.8 C16.7 316.21 14.25 318.61 11.79 320.99 C-2.58 335.13 -6.33 347.16 -6.54 367 C-6.56 370.61 -6.56 374.21 -6.56 377.81 C-6.61 424.36 -22.31 444.39 -54.19 476.25 C-58.07 480.12 -61.95 483.99 -65.84 487.86 C-66.38 488.39 -66.91 488.93 -67.47 489.48 C-68.9 490.9 -70.34 492.32 -71.79 493.74 C-74 496 -74 496 -76.12 498.88 C-83.49 507.8 -95.85 512.42 -107 514 C-109.26 514.09 -111.53 514.14 -113.8 514.15 C-114.45 514.15 -115.1 514.15 -115.77 514.16 C-117.91 514.16 -120.04 514.17 -122.18 514.17 C-123.68 514.17 -125.17 514.17 -126.67 514.18 C-129.8 514.18 -132.93 514.19 -136.07 514.19 C-140.06 514.19 -144.06 514.2 -148.06 514.22 C-151.15 514.23 -154.24 514.23 -157.33 514.23 C-158.8 514.23 -160.27 514.23 -161.74 514.24 C-176.09 514.31 -188.22 512.3 -199 502 C-199.95 500.9 -200.9 499.79 -201.84 498.68 C-207.38 492.31 -213.44 486.44 -219.41 480.49 C-220.72 479.19 -222.02 477.89 -223.32 476.59 C-226.72 473.19 -230.13 469.79 -233.54 466.39 C-237 462.94 -240.47 459.48 -243.93 456.02 C-249.52 450.44 -255.12 444.86 -260.71 439.28 C-263.04 436.95 -265.37 434.63 -267.69 432.3 C-269.38 430.62 -271.09 428.96 -272.81 427.31 C-275 425 -275 425 -275 423 C-275.56 422.79 -276.11 422.59 -276.69 422.38 C-279.29 420.83 -280.85 418.93 -282.72 416.58 C-285.44 413.22 -288.52 410.39 -291.88 407.69 C-295.72 404.53 -298.85 400.83 -302 397 C-302.54 396.35 -303.08 395.7 -303.64 395.02 C-314.5 381.29 -314.31 366.38 -314.3 349.64 C-314.3 347.65 -314.31 345.66 -314.31 343.67 C-314.32 339.51 -314.32 335.35 -314.32 331.19 C-314.31 325.9 -314.33 320.6 -314.35 315.31 C-314.36 311.2 -314.37 307.09 -314.36 302.98 C-314.36 301.03 -314.37 299.08 -314.38 297.13 C-314.48 275.73 -311.57 253.98 -296.59 237.32 C-295.02 235.77 -293.44 234.24 -291.82 232.74 C-290 231 -290 231 -289 229 C-288.34 229 -287.68 229 -287 229 C-286.76 228.43 -286.51 227.86 -286.26 227.27 C-284.77 224.59 -283.02 222.79 -280.84 220.63 C-280.42 220.21 -280.42 220.21 -278.24 218.04 C-277.31 217.13 -276.38 216.21 -275.43 215.27 C-274.46 214.3 -273.49 213.34 -272.53 212.38 C-269.98 209.85 -267.43 207.32 -264.87 204.79 C-260.8 200.77 -256.74 196.74 -252.68 192.7 C-251.27 191.3 -249.86 189.91 -248.45 188.51 C-244.02 184.12 -239.77 179.67 -235.7 174.93 C-232.57 171.38 -229.19 168.07 -225.84 164.74 C-225.08 163.98 -224.33 163.23 -223.55 162.45 C-221.16 160.07 -218.77 157.69 -216.38 155.31 C-214.76 153.71 -213.15 152.1 -211.54 150.49 C-207.99 146.95 -204.44 143.41 -200.88 139.88 C-200.26 139.26 -199.64 138.64 -199 138 C-198.2 137.22 -197.41 136.43 -196.59 135.62 C-193.94 132.94 -191.41 130.18 -188.88 127.39 C-183.85 121.86 -178.65 116.53 -173.35 111.27 C-171.84 109.78 -170.33 108.28 -168.83 106.78 C-165.64 103.6 -162.44 100.42 -159.25 97.25 C-155.53 93.55 -151.81 89.85 -148.09 86.14 C-146.62 84.68 -145.15 83.22 -143.68 81.76 C-139.16 77.26 -134.8 72.71 -130.65 67.87 C-127.77 64.6 -124.66 61.56 -121.56 58.5 C-120.88 57.82 -120.19 57.14 -119.49 56.44 C-116.6 53.57 -113.71 50.7 -110.82 47.84 C-108.69 45.73 -106.56 43.61 -104.44 41.5 C-103.8 40.87 -103.15 40.23 -102.49 39.58 C-98.72 35.83 -95.16 31.95 -91.68 27.92 C-87.52 23.17 -83.03 18.73 -78.6 14.25 C-77.41 13.04 -76.23 11.84 -75.06 10.62 C-53.41 -11.71 -26.82 -19.47 0 0 Z M-66 58 C-66 58.66 -66 59.32 -66 60 C-66.66 60 -67.32 60 -68 60 C-69.35 61.37 -69.35 61.37 -70.96 63.33 C-75.11 68.21 -79.59 72.71 -84.14 77.21 C-85.64 78.7 -87.14 80.2 -88.64 81.69 C-91.82 84.86 -95 88.02 -98.19 91.19 C-101.89 94.87 -105.59 98.55 -109.29 102.24 C-110.76 103.7 -112.24 105.16 -113.71 106.63 C-114.61 107.52 -115.51 108.41 -116.43 109.34 C-117.22 110.12 -118.01 110.9 -118.82 111.71 C-121 114 -121 114 -122.97 116.48 C-125.15 119.19 -127.51 121.57 -130 124 C-130.87 124.87 -131.75 125.74 -132.65 126.64 C-133.61 127.59 -134.57 128.54 -135.52 129.49 C-140.86 134.8 -146.2 140.11 -151.53 145.43 C-154.75 148.64 -157.98 151.85 -161.2 155.05 C-164.33 158.16 -167.46 161.27 -170.58 164.39 C-171.77 165.57 -172.96 166.76 -174.15 167.94 C-175.81 169.59 -177.47 171.24 -179.12 172.9 C-179.62 173.39 -180.12 173.88 -180.63 174.38 C-184 177.77 -184 177.77 -184 180 C-184.58 180.25 -185.15 180.5 -185.75 180.75 C-188.33 182.18 -190.06 183.78 -192 186 C-192 186.66 -192 187.32 -192 188 C-192.58 188.24 -193.16 188.49 -193.76 188.74 C-196.4 190.23 -197.84 191.88 -199.8 194.2 C-203.76 198.71 -207.92 202.94 -212.23 207.12 C-213.54 208.4 -214.85 209.68 -216.16 210.96 C-218.18 212.92 -220.19 214.88 -222.22 216.83 C-241.55 235.38 -241.55 235.38 -242.17 249.56 C-241.66 256.98 -238.82 264.3 -234 270 C-233.34 270 -232.68 270 -232 270 C-231.75 270.58 -231.49 271.16 -231.23 271.75 C-229.86 274.26 -228.32 275.92 -226.3 277.94 C-225.53 278.71 -224.76 279.48 -223.97 280.28 C-223.55 280.7 -223.55 280.7 -221.41 282.82 C-220.52 283.71 -219.63 284.6 -218.71 285.52 C-216.27 287.96 -213.83 290.39 -211.38 292.82 C-208.82 295.37 -206.27 297.92 -203.71 300.47 C-198.87 305.31 -194.02 310.15 -189.16 314.98 C-183.66 320.46 -178.16 325.95 -172.66 331.44 C-163.26 340.82 -153.85 350.21 -144.44 359.58 C-143.66 360.36 -142.88 361.13 -142.08 361.93 C-141.37 362.64 -140.65 363.36 -139.92 364.09 C-138.3 365.7 -136.7 367.31 -135.1 368.93 C-133 371 -133 371 -130.44 373 C-128 375 -128 375 -126.12 377.38 C-124.36 379.55 -122.82 381.06 -120.69 382.81 C-114.01 388.41 -107.19 395.25 -105.62 404.15 C-105.22 411.54 -107.58 418.14 -112.34 423.77 C-115.19 426.67 -118.1 429.48 -121.06 432.25 C-122.58 433.68 -124.09 435.12 -125.6 436.57 C-126.96 437.88 -128.33 439.17 -129.7 440.46 C-134.48 445.74 -135.56 450.4 -135.35 457.31 C-134.67 462.52 -132.39 465.65 -128.62 469.31 C-122.46 473.28 -116.18 473.94 -109 473 C-102.85 471.02 -98.32 468.02 -94.45 462.84 C-91.21 458.72 -87.2 455.2 -83.47 451.52 C-81.15 449.23 -78.83 446.93 -76.51 444.62 C-75.29 443.41 -74.06 442.2 -72.83 440.98 C-71.06 439.23 -69.28 437.47 -67.51 435.71 C-66.96 435.16 -66.41 434.62 -65.84 434.06 C-64.52 432.75 -63.25 431.38 -62 430 C-62 429.34 -62 428.68 -62 428 C-61.34 428 -60.68 428 -60 428 C-51.8 419.66 -46.91 409.78 -46.84 398.06 C-46.83 396.86 -46.82 395.66 -46.81 394.43 C-46.8 393.13 -46.8 391.84 -46.79 390.5 C-46.78 389.15 -46.76 387.8 -46.75 386.44 C-46.69 380.71 -46.63 374.98 -46.6 369.25 C-46.58 365.74 -46.54 362.23 -46.5 358.71 C-46.48 356.75 -46.47 354.79 -46.47 352.82 C-46.12 326.88 -34.16 313.06 -16.69 295.72 C-16 295.03 -15.31 294.34 -14.6 293.64 C-13.26 292.32 -11.92 291 -10.57 289.7 C-10.27 289.4 -10.27 289.4 -8.75 287.91 C-8.22 287.4 -7.69 286.88 -7.14 286.35 C-6 285 -6 285 -6 283 C-5.34 283 -4.68 283 -4 283 C-4 282.34 -4 281.68 -4 281 C-3.34 281 -2.68 281 -2 281 C-0.78 279.76 -0.78 279.76 0.72 277.91 C4.22 273.79 7.95 269.96 11.78 266.16 C12.4 265.54 13.02 264.92 13.66 264.29 C16.26 261.71 18.86 259.13 21.47 256.55 C34.3 243.85 34.3 243.85 39.42 237.8 C43.26 233.42 47.53 229.43 51.68 225.36 C55.77 221.32 59.64 217.18 63.39 212.83 C65.67 210.24 68.13 207.89 70.62 205.5 C78.4 197.87 82.94 190.79 83.31 179.62 C82.88 163.79 71.31 155.17 60.77 144.56 C59.78 143.57 58.79 142.57 57.8 141.57 C54.59 138.32 51.38 135.09 48.16 131.85 C47.61 131.3 47.06 130.74 46.49 130.17 C41.29 124.94 36.09 119.71 30.88 114.49 C24.26 107.84 17.64 101.19 11.04 94.52 C6.38 89.8 1.7 85.1 -2.98 80.41 C-5.77 77.62 -8.56 74.82 -11.33 72.01 C-13.93 69.37 -16.55 66.74 -19.18 64.12 C-20.59 62.71 -21.99 61.29 -23.38 59.86 C-29.88 53.43 -36.2 49.18 -45.5 48.5 C-53.44 48.91 -60.44 52.44 -66 58 Z " fill="#0EF3FD" transform="translate(689,149)"/>
<path d="M0 0 C8.64 7.43 15.93 18.63 17.43 30.09 C18.63 51.07 18.63 51.07 14.43 60.09 C14.22 60.53 14.22 60.53 13.17 62.8 C6.95 75.14 -2.21 84.38 -15.45 88.96 C-29 93.03 -41.78 91.96 -54.57 86.09 C-67.53 78.53 -75.82 67.57 -80.46 53.38 C-83.46 40.28 -81.89 26.51 -75.32 14.77 C-67.52 2.39 -57.9 -5.97 -43.57 -9.91 C-27.49 -13.12 -13.13 -9.76 0 0 Z " fill="#F85825" transform="translate(945.57421875,640.9140625)"/>
<path d="M0 0 C0.75 -0.04 1.5 -0.07 2.27 -0.11 C9.98 1.21 15.81 9.04 21.07 14.3 C22.07 15.29 23.06 16.27 24.05 17.26 C26.13 19.32 28.2 21.39 30.26 23.46 C32.9 26.1 35.56 28.72 38.21 31.34 C40.27 33.37 42.31 35.41 44.35 37.46 C45.32 38.43 46.3 39.4 47.28 40.36 C58.6 51.51 58.6 51.51 58.88 60.25 C57.84 66.23 53.19 70.16 48.82 74.02 C46.33 75.57 44.8 75.75 41.88 75.75 C41.05 75.77 40.23 75.79 39.38 75.81 C33.88 74.77 29.83 70.64 25.97 66.79 C25.08 65.9 24.18 65.02 23.26 64.1 C22.3 63.14 21.35 62.18 20.39 61.22 C19.4 60.22 18.4 59.23 17.4 58.24 C15.33 56.16 13.25 54.09 11.18 52 C8.53 49.34 5.87 46.69 3.21 44.04 C1.15 41.99 -0.9 39.94 -2.95 37.88 C-3.93 36.9 -4.91 35.92 -5.89 34.95 C-7.26 33.58 -8.62 32.21 -9.99 30.83 C-10.76 30.06 -11.54 29.28 -12.34 28.47 C-16.23 24.07 -16.7 20.51 -16.56 14.78 C-15.92 9.68 -12.84 6.71 -9.12 3.5 C-5.76 0.94 -4.13 0.13 0 0 Z " fill="#0DF2FB" transform="translate(584.25,326.6875)"/>
<path d="M0 0 C0.75 -0.04 1.5 -0.07 2.27 -0.11 C9.97 1.21 15.81 9.03 21.07 14.27 C22.07 15.25 23.06 16.23 24.05 17.22 C26.13 19.28 28.2 21.34 30.26 23.4 C32.9 26.03 35.56 28.65 38.21 31.26 C40.27 33.29 42.31 35.32 44.35 37.36 C45.32 38.33 46.3 39.29 47.28 40.26 C58.5 51.26 58.5 51.26 58.85 59.82 C57.45 65.87 54.69 69.55 49.75 73.31 C46.89 75.02 44.7 75.63 41.38 75.69 C40.65 75.72 39.92 75.74 39.16 75.77 C33.74 74.74 29.66 70.47 25.86 66.68 C24.94 65.77 24.03 64.86 23.08 63.92 C22.1 62.94 21.12 61.95 20.14 60.96 C19.12 59.95 18.1 58.93 17.08 57.91 C14.95 55.78 12.82 53.65 10.7 51.52 C7.98 48.79 5.25 46.07 2.51 43.34 C0.41 41.25 -1.69 39.15 -3.79 37.04 C-4.79 36.04 -5.8 35.03 -6.81 34.03 C-8.21 32.63 -9.61 31.22 -11.01 29.81 C-11.81 29.01 -12.6 28.22 -13.42 27.39 C-16.76 23.6 -16.59 19.64 -16.53 14.81 C-15.96 9.69 -12.85 6.71 -9.12 3.5 C-5.76 0.94 -4.13 0.13 0 0 Z " fill="#0DF2FB" transform="translate(544.25,367.6875)"/>
<path d="M0 0 C2.73 2.23 4.63 4.45 6.75 7.25 C8.4 8.94 10.07 10.6 11.75 12.25 C12.93 13.42 14.12 14.58 15.3 15.75 C15.95 16.39 16.6 17.03 17.27 17.69 C20.21 20.59 23.13 23.49 26.06 26.4 C27.6 27.92 29.15 29.45 30.7 30.97 C32.94 33.18 35.18 35.4 37.41 37.62 C38.1 38.3 38.8 38.97 39.51 39.67 C44.02 44.18 47.34 48.08 48.19 54.62 C47.41 61.07 45.03 65.54 40.06 69.75 C36.37 72.26 33.44 72.9 29.02 72.85 C22.08 71.01 17.02 64.81 12.13 59.9 C11.72 59.49 11.72 59.49 9.66 57.43 C7.94 55.71 6.22 53.99 4.5 52.26 C1.9 49.65 -0.72 47.04 -3.33 44.44 C-5.01 42.76 -6.69 41.08 -8.37 39.4 C-9.14 38.63 -9.91 37.86 -10.7 37.07 C-25.9 21.75 -25.9 21.75 -26.56 15.12 C-26.13 9.71 -24.59 5.45 -20.57 1.67 C-13.95 -3.27 -7.41 -3.99 0 0 Z " fill="#0CF3FA" transform="translate(634.25,289.75)"/>
</svg>
