<?xml version="1.0" encoding="UTF-8"?>
<!-- Generator: visioncortex VTracer 0.6.12 -->
<svg version="1.1" xmlns="http://www.w3.org/2000/svg" width="512" height="512">
<path d="M0 0 C168.96 0 337.92 0 512 0 C512 168.96 512 337.92 512 512 C343.04 512 174.08 512 0 512 C0 343.04 0 174.08 0 0 Z " fill="#0FE00E" transform="translate(0,0)"/>
<path d="M0 0 C7.1 3.39 12.14 7.93 17.62 13.51 C18.52 14.41 19.42 15.31 20.35 16.24 C22.24 18.14 24.13 20.04 26.01 21.96 C28.4 24.38 30.8 26.79 33.21 29.19 C35.54 31.52 37.86 33.86 40.18 36.2 C41.03 37.05 41.88 37.9 42.76 38.78 C52.02 48.22 59.54 57.52 60.07 71.19 C59.34 91.43 42.42 104.61 29.07 117.81 C4.36 142.24 4.36 142.24 4.23 157 C4.25 159.36 4.27 161.73 4.3 164.1 C4.18 176.5 -0.25 183.92 -8.78 192.62 C-9.91 193.78 -11.03 194.95 -12.15 196.12 C-14.21 198.28 -16.28 200.42 -18.37 202.56 C-18.7 202.91 -18.7 202.91 -20.37 204.65 C-27.81 212.18 -33.54 214.65 -44.16 214.82 C-45.63 214.83 -47.1 214.83 -48.57 214.82 C-50.8 214.81 -53.03 214.86 -55.26 214.91 C-68.2 215.03 -68.2 215.03 -73.49 210.1 C-74.09 209.47 -74.69 208.84 -75.3 208.19 C-76.07 207.46 -76.83 206.74 -77.62 205.99 C-80.14 203.58 -82.6 201.11 -85.05 198.62 C-85.89 197.79 -86.73 196.95 -87.59 196.09 C-91.39 192.25 -94.95 188.42 -98.3 184.19 C-100.51 181.9 -102.77 179.7 -105.06 177.5 C-107.02 175.61 -108.97 173.71 -110.93 171.81 C-111.26 171.49 -111.26 171.49 -112.95 169.89 C-113.6 169.26 -114.24 168.63 -114.9 167.97 C-115.49 167.41 -116.07 166.85 -116.66 166.28 C-121.29 160.38 -121.78 154.76 -121.81 147.52 C-121.82 146.6 -121.83 145.69 -121.84 144.74 C-121.85 142.81 -121.86 140.88 -121.86 138.94 C-121.87 136.02 -121.92 133.1 -121.98 130.18 C-122.14 113.92 -118.33 104.74 -107.08 93.01 C-105.16 91.06 -103.23 89.12 -101.3 87.19 C-100.01 85.88 -98.72 84.57 -97.42 83.26 C-93.53 79.34 -89.61 75.45 -85.68 71.56 C-83.04 68.95 -80.4 66.33 -77.76 63.71 C-77.17 63.13 -76.58 62.54 -75.97 61.94 C-73.48 59.46 -71.2 57.05 -69.02 54.28 C-68.46 53.59 -67.89 52.9 -67.3 52.19 C-66.64 52.19 -65.98 52.19 -65.3 52.19 C-65.18 51.9 -65.18 51.9 -64.57 50.47 C-63.04 47.7 -61.18 45.8 -58.95 43.56 C-58.05 42.65 -57.15 41.73 -56.22 40.8 C-55.23 39.81 -54.24 38.82 -53.26 37.84 C-52.24 36.82 -51.23 35.8 -50.21 34.78 C-48.09 32.65 -45.96 30.52 -43.83 28.39 C-41.1 25.68 -38.39 22.95 -35.68 20.22 C-33.59 18.11 -31.49 16.01 -29.39 13.91 C-28.39 12.91 -27.39 11.91 -26.39 10.9 C-25 9.49 -23.59 8.09 -22.17 6.68 C-21.38 5.89 -20.58 5.09 -19.76 4.27 C-13.75 -0.83 -7.5 -2.65 0 0 Z " fill="#0EF3FA" transform="translate(274.3026885986328,56.81477355957031)"/>
<path d="M0 0 C12.81 9.56 22.21 21.81 25.46 37.69 C27.95 56.65 23.46 73.06 12.06 88.31 C4.61 96.95 -4.5 102.02 -15.12 105.81 C-16.13 106.19 -17.13 106.56 -18.17 106.95 C-21.12 107.81 -21.12 107.81 -26.12 107.81 C-26.12 101.54 -26.12 95.27 -26.12 88.81 C-24.81 88.32 -24.81 88.32 -18.12 85.81 C-7.95 81.38 -1.22 75.05 3.21 64.69 C7.15 53.07 7.25 42.94 1.88 31.81 C-2.93 22.69 -10.37 15.99 -20.13 12.47 C-31.74 9.91 -43.29 11.16 -53.55 17.25 C-61.78 23 -67.22 31.59 -69.69 41.28 C-71.72 53.13 -68.86 63.94 -62.12 73.81 C-56.03 81.59 -47.42 85.91 -38.12 88.81 C-35.19 110.4 -47.77 131.59 -60.14 148.59 C-62.07 151.06 -64.07 153.44 -66.12 155.81 C-66.82 156.64 -67.52 157.47 -68.24 158.33 C-84.16 176.77 -106.93 190.17 -131.59 191.99 C-138.46 192.3 -145.33 192.28 -152.21 192.28 C-154.43 192.29 -156.66 192.3 -158.89 192.3 C-163.53 192.32 -168.18 192.32 -172.83 192.31 C-178.74 192.31 -184.65 192.34 -190.56 192.38 C-195.15 192.4 -199.74 192.41 -204.33 192.4 C-206.51 192.41 -208.69 192.41 -210.87 192.43 C-236.17 192.62 -257.04 186.08 -275.66 168.4 C-292.71 150.38 -298.84 129.25 -298.43 105.06 C-297.5 79.42 -283.18 59.79 -266.12 41.81 C-267.31 39.27 -268.32 37.6 -270.25 35.5 C-272.71 31.97 -272.54 30.05 -272.12 25.81 C-269.69 21.69 -266.37 18.32 -263.12 14.81 C-262.24 13.83 -261.35 12.86 -260.44 11.85 C-255.46 6.57 -255.46 6.57 -253.12 4.81 C-249.63 5.16 -247.9 6.65 -245.44 9.06 C-244.74 9.74 -244.03 10.43 -243.31 11.13 C-242.56 11.88 -241.81 12.62 -241.04 13.39 C-240.27 14.15 -239.5 14.92 -238.7 15.7 C-237.07 17.32 -235.44 18.94 -233.81 20.57 C-231.32 23.05 -228.8 25.52 -226.28 27.98 C-224.7 29.55 -223.12 31.13 -221.54 32.7 C-221.16 33.07 -221.16 33.07 -219.25 34.94 C-218.9 35.28 -218.9 35.28 -217.16 37.05 C-216.85 37.35 -216.85 37.35 -215.31 38.89 C-214.12 40.81 -214.12 40.81 -214.37 43.44 C-215.15 45.89 -215.88 47.1 -217.64 48.93 C-218.15 49.48 -218.66 50.02 -219.19 50.58 C-219.72 51.13 -220.26 51.68 -220.81 52.25 C-221.33 52.8 -221.85 53.34 -222.38 53.91 C-223.42 55.01 -224.48 56.1 -225.53 57.18 C-226.61 58.29 -227.68 59.41 -228.74 60.53 C-232.75 64.73 -232.75 64.73 -236.5 65.56 C-241.41 64.55 -244.4 62.06 -248.12 58.81 C-262.44 72.35 -273.65 88.29 -274.53 108.59 C-274.83 125.73 -268.78 141.26 -257.12 153.81 C-246.58 163.67 -233.36 168.14 -219.18 168.07 C-218.22 168.07 -217.26 168.08 -216.26 168.08 C-213.1 168.09 -209.95 168.08 -206.79 168.08 C-204.58 168.08 -202.37 168.08 -200.16 168.08 C-195.54 168.09 -190.91 168.08 -186.29 168.07 C-180.38 168.06 -174.47 168.07 -168.56 168.08 C-164.01 168.09 -159.45 168.09 -154.89 168.08 C-152.71 168.08 -150.53 168.08 -148.35 168.09 C-145.3 168.09 -142.25 168.08 -139.2 168.07 C-138.75 168.07 -138.75 168.07 -136.5 168.08 C-127.64 168.02 -120.11 166.26 -112.25 162.19 C-111.56 161.84 -110.87 161.49 -110.17 161.12 C-86.88 148.93 -71.4 126.45 -63.12 101.81 C-63.12 100.82 -63.12 99.83 -63.12 98.81 C-64.63 97.45 -64.63 97.45 -66.69 96.06 C-79.6 86.74 -87.21 73.42 -90.12 57.81 C-92.26 40.88 -87.42 25.56 -77.02 12.09 C-69.84 3.67 -61.48 -2.32 -51.12 -6.19 C-50.38 -6.49 -49.63 -6.79 -48.87 -7.09 C-33.27 -12.65 -13.62 -9.11 0 0 Z " fill="#0EF2FA" transform="translate(405.125,228.1875)"/>
<path d="M0 0 C5.41 2.59 8.86 6.98 12.75 11.46 C15.08 14.09 17.51 16.54 20 19 C21 20.01 22.01 21.03 23.01 22.04 C24.05 23.09 25.09 24.14 26.12 25.19 C26.65 25.72 27.17 26.25 27.71 26.8 C30.05 29.15 32.23 31.16 35 33 C35 33.66 35 34.32 35 35 C35.29 35.13 35.29 35.13 36.74 35.76 C39.31 37.17 41.06 38.8 43.12 40.88 C43.81 41.55 44.49 42.23 45.2 42.93 C48.55 46.78 49.23 49.68 49.46 54.8 C48.27 60.47 43.7 64.5 39.69 68.38 C36.59 71.37 33.66 74.36 30.87 77.64 C27.89 81.08 24.74 84.31 21.5 87.5 C21.01 87.98 20.52 88.46 20.01 88.96 C17.98 90.96 15.94 92.95 13.89 94.93 C-3.03 111.38 -3.03 111.38 -3.21 123.43 C-3.24 124.7 -3.27 125.97 -3.3 127.28 C-3.35 129.96 -3.39 132.63 -3.43 135.31 C-3.46 136.59 -3.49 137.86 -3.52 139.18 C-3.54 140.34 -3.56 141.5 -3.58 142.7 C-4.21 147.68 -6.24 151.55 -9.67 155.18 C-10.17 155.72 -10.66 156.25 -11.17 156.8 C-11.69 157.34 -12.21 157.88 -12.75 158.44 C-13.29 159 -13.83 159.57 -14.38 160.15 C-15.45 161.27 -16.51 162.38 -17.58 163.49 C-18.76 164.75 -19.9 166.05 -21.03 167.36 C-23.97 170.71 -26.17 172.43 -30.62 173.25 C-34.19 173.38 -34.94 173.04 -38.06 170.94 C-40.36 167.46 -40.56 166.09 -40 162 C-37.85 159.3 -37.85 159.3 -35.06 156.75 C-29.18 151.29 -29.18 151.29 -28.5 146.38 C-28.57 142.71 -29.4 141.07 -31.86 138.4 C-32.5 137.7 -33.14 137.01 -33.8 136.29 C-37.55 132.38 -41.37 128.54 -45.23 124.73 C-46.74 123.23 -48.26 121.73 -49.77 120.22 C-54.06 115.96 -58.36 111.7 -62.66 107.44 C-65.3 104.82 -67.94 102.2 -70.58 99.57 C-71.58 98.58 -72.58 97.58 -73.59 96.59 C-74.99 95.21 -76.38 93.82 -77.77 92.44 C-78.57 91.65 -79.36 90.86 -80.18 90.05 C-83.04 86.82 -83.54 83.42 -83.46 79.15 C-82.9 76.51 -81.98 75.4 -80.16 73.42 C-79.52 72.72 -78.88 72.03 -78.23 71.32 C-73.42 66.31 -68.49 61.44 -63.54 56.56 C-62.11 55.15 -60.68 53.73 -59.25 52.31 C-58.41 51.48 -57.57 50.65 -56.7 49.8 C-54.63 47.65 -52.67 45.49 -50.73 43.23 C-46.71 38.6 -42.42 34.27 -38.07 29.94 C-37.66 29.53 -37.66 29.53 -35.56 27.43 C-33.83 25.69 -32.09 23.95 -30.35 22.22 C-27.67 19.55 -25.01 16.88 -22.34 14.21 C-20.65 12.51 -18.96 10.82 -17.26 9.13 C-16.46 8.33 -15.66 7.53 -14.84 6.7 C-14.1 5.97 -13.36 5.23 -12.6 4.47 C-12.28 4.15 -12.28 4.15 -10.64 2.51 C-7.29 -0.58 -4.44 -0.37 0 0 Z " fill="#10E010" transform="translate(266,81)"/>
<path d="M0 0 C9.5 8.2 9.5 8.2 9.95 13.95 C10.07 21.85 9.21 26.31 5.12 33.06 C0.7 37.37 -4.65 39.55 -10.81 39.94 C-16.58 39.65 -20.77 36.84 -24.79 32.85 C-29.76 27.14 -30.77 22.87 -30.63 15.42 C-29.88 9.44 -26.67 5.47 -22.31 1.5 C-15.2 -3.44 -7.77 -3.88 0 0 Z " fill="#F75825" transform="translate(383.25,259.625)"/>
<path d="M0 0 C3.45 2.53 6.35 5.59 9.35 8.64 C10.81 10.12 12.29 11.56 13.78 13.01 C14.7 13.94 15.63 14.86 16.58 15.82 C17.43 16.67 18.28 17.52 19.15 18.39 C21.39 21.55 21.51 23.2 21 27 C19.38 29.38 19.38 29.38 17 31 C13.32 31.46 11.59 31.4 8.48 29.29 C5.84 26.71 3.21 24.13 0.62 21.5 C-0.3 20.61 -1.23 19.73 -2.18 18.81 C-9.6 11.39 -9.6 11.39 -9.71 6.47 C-9 3 -9 3 -7.31 1 C-4.53 -0.2 -3.02 -0.38 0 0 Z " fill="#0DF1F7" transform="translate(225,150)"/>
<path d="M0 0 C5.38 1.77 9.03 6.61 12.94 10.55 C13.41 11 13.41 11 15.76 13.28 C16.64 14.15 17.52 15.03 18.43 15.94 C18.83 16.34 18.83 16.34 20.87 18.36 C23.04 21.46 23.1 23.16 22.63 26.86 C21 29.24 21 29.24 18.63 30.86 C14.98 31.32 13.25 31.31 10.22 29.15 C9.46 28.37 8.7 27.59 7.92 26.78 C7.09 25.93 6.25 25.08 5.4 24.21 C4.54 23.31 3.69 22.41 2.82 21.49 C1.94 20.6 1.07 19.71 0.18 18.79 C-7.2 11.21 -7.2 11.21 -7.75 6.99 C-7.37 3.86 -7.37 3.86 -5.18 1.43 C-2.37 -0.14 -2.37 -0.14 0 0 Z " fill="#0DF2F7" transform="translate(239.371826171875,133.135986328125)"/>
<path d="M0 0 C3.83 2.75 7.01 6.22 10.31 9.56 C11.24 10.46 12.18 11.35 13.13 12.28 C14.01 13.16 14.89 14.03 15.8 14.94 C16.61 15.74 17.41 16.54 18.24 17.37 C20.53 20.79 20.44 22.97 20 27 C18.31 29.44 18.31 29.44 16 31 C12.65 31.51 11.39 31.28 8.61 29.26 C7.81 28.46 7 27.66 6.17 26.84 C5.29 25.96 4.41 25.09 3.5 24.18 C2.59 23.26 1.69 22.33 0.75 21.38 C-0.17 20.47 -1.1 19.57 -2.05 18.64 C-2.92 17.75 -3.8 16.87 -4.7 15.96 C-5.1 15.56 -5.1 15.56 -7.13 13.52 C-9.32 10.57 -9.87 8.65 -10 5 C-7.01 0.96 -5.03 -0.75 0 0 Z " fill="#0CF2F6" transform="translate(258,117)"/>
<path d="M0 0 C0.99 0.33 1.98 0.66 3 1 C-10.86 14.86 -24.72 28.72 -39 43 C-39.66 42.67 -40.32 42.34 -41 42 C-40.58 41.59 -40.15 41.18 -39.71 40.75 C-39.13 40.17 -38.54 39.59 -37.94 39 C-37.37 38.44 -36.8 37.89 -36.21 37.31 C-34.44 35.46 -32.79 33.58 -31.12 31.62 C-25.45 25.09 -19.2 19.09 -13.06 13 C-11.79 11.74 -10.52 10.47 -9.26 9.21 C-6.17 6.14 -3.09 3.07 0 0 Z " fill="#0DDC22" transform="translate(246,93)"/>
</svg>
