<?xml version="1.0" encoding="UTF-8"?>
<!-- Generator: visioncortex VTracer 0.6.12 -->
<svg version="1.1" xmlns="http://www.w3.org/2000/svg" width="512" height="512">
<path d="M0 0 C1.06 -0.02 2.12 -0.03 3.21 -0.05 C9.37 -0.05 13.57 0.54 19.06 3.31 C19.91 3.47 20.75 3.63 21.62 3.8 C24.87 4.48 27.31 5.91 30.19 7.56 C31.22 8.15 32.26 8.73 33.32 9.33 C36.22 11.42 37.37 13.22 39.06 16.31 C41.25 17.12 41.25 17.12 43.06 17.31 C43.06 17.97 43.06 18.63 43.06 19.31 C43.72 19.31 44.38 19.31 45.06 19.31 C45.14 19.89 45.23 20.47 45.31 21.06 C46.27 23.93 47.91 25.23 50.06 27.31 C50.39 28.3 50.72 29.29 51.06 30.31 C51.86 32.07 52.68 33.82 53.5 35.56 C60.64 51.22 60.63 66.88 54.81 82.94 C52.3 89.18 49.26 95.17 44.41 99.93 C43.06 101.31 43.06 101.31 42.56 103.31 C41.94 105.82 41.09 106.73 39.06 108.31 C38.36 108.48 37.66 108.64 36.94 108.81 C36.32 108.98 35.7 109.14 35.06 109.31 C34.73 110.3 34.4 111.29 34.06 112.31 C32.73 112.67 31.4 113 30.06 113.31 C29.62 113.77 29.17 114.23 28.71 114.7 C24.71 118.61 19.23 120.29 13.74 120.34 C10.84 120.1 7.95 119.71 5.06 119.31 C5.06 112.38 5.06 105.45 5.06 98.31 C16.45 93.5 16.45 93.5 20.39 92.27 C23.06 91.31 23.06 91.31 24.19 89.38 C24.48 88.69 24.76 88.01 25.06 87.31 C26.36 86.27 27.7 85.27 29.06 84.31 C31.6 82.09 32.86 79.97 34.19 76.88 C34.35 76.49 34.35 76.49 35.2 74.57 C38.98 64.74 37.94 53.74 33.94 44.19 C33.79 43.88 33.79 43.88 33.06 42.31 C32.4 42.31 31.74 42.31 31.06 42.31 C31 41.78 30.94 41.24 30.88 40.69 C29.67 37.17 27.61 34.98 25.06 32.31 C23.74 31.93 22.41 31.6 21.06 31.31 C19.78 30.7 18.5 30.05 17.25 29.38 C8.3 24.85 -0.59 23.82 -10.25 26.69 C-11.82 27.22 -13.38 27.76 -14.94 28.31 C-15.5 28.47 -15.5 28.47 -18.38 29.25 C-21.31 30.47 -22.21 31.72 -23.94 34.31 C-24.6 34.31 -25.26 34.31 -25.94 34.31 C-26.27 35.3 -26.6 36.29 -26.94 37.31 C-27.56 37.59 -28.19 37.87 -28.83 38.16 C-31.78 39.77 -32.33 41.64 -33.62 44.69 C-34.04 45.64 -34.46 46.6 -34.89 47.59 C-38.98 58.21 -37.43 69.06 -32.94 79.31 C-30.94 83.27 -29.01 85.47 -24.94 87.31 C-24.46 87.97 -23.99 88.63 -23.5 89.31 C-21.53 91.84 -19.93 92.22 -16.94 93.31 C-15.98 93.67 -15.03 94.02 -14.04 94.38 C-13.08 94.73 -12.12 95.08 -11.12 95.44 C-10.15 95.79 -9.17 96.14 -8.17 96.51 C-7.43 96.77 -6.7 97.04 -5.94 97.31 C-5.23 109.83 -5.23 120.09 -11.01 131.48 C-11.99 133.41 -12.9 135.37 -13.8 137.33 C-17.52 145.26 -21.82 152.45 -26.96 159.54 C-29.2 162.68 -31.33 165.77 -32.75 169.38 C-34.5 172.23 -37.18 173.47 -39.94 175.31 C-41.19 177.5 -41.19 177.5 -41.94 179.31 C-42.6 179.64 -43.26 179.97 -43.94 180.31 C-44.27 180.97 -44.6 181.63 -44.94 182.31 C-45.27 182.38 -45.27 182.38 -46.94 182.75 C-47.6 182.94 -48.26 183.12 -48.94 183.31 C-49.27 184.3 -49.6 185.29 -49.94 186.31 C-50.93 186.64 -51.92 186.97 -52.94 187.31 C-53.49 187.9 -54.04 188.48 -54.61 189.08 C-57.77 192.11 -61.28 193.96 -65.12 196 C-65.84 196.4 -66.56 196.81 -67.3 197.22 C-71.98 199.72 -75.86 200.83 -81.18 201.05 C-81.76 201.14 -82.34 201.22 -82.94 201.31 C-83.27 201.97 -83.6 202.63 -83.94 203.31 C-91.68 206.6 -100.27 206.46 -108.55 206.47 C-109.46 206.48 -110.38 206.48 -111.32 206.49 C-114.32 206.5 -117.32 206.51 -120.32 206.52 C-121.36 206.52 -122.39 206.52 -123.46 206.52 C-128.92 206.54 -134.39 206.55 -139.86 206.55 C-145.48 206.56 -151.09 206.58 -156.7 206.61 C-161.05 206.63 -165.4 206.63 -169.75 206.64 C-171.82 206.64 -173.89 206.65 -175.95 206.66 C-199.04 206.8 -199.04 206.8 -208.94 203.31 C-209.27 202.65 -209.6 201.99 -209.94 201.31 C-210.51 201.26 -210.51 201.26 -213.44 201 C-218.66 200.51 -222.56 198.06 -226.94 195.31 C-226.94 194.65 -226.94 193.99 -226.94 193.31 C-227.32 193.26 -227.32 193.26 -229.25 193 C-232.2 192.25 -233.02 191.58 -234.94 189.31 C-236.6 187.51 -237.75 186.4 -240 185.38 C-242.45 184.03 -242.72 182.8 -243.94 180.31 C-244.87 179.05 -245.86 177.82 -246.88 176.62 C-247.38 176.02 -247.88 175.42 -248.4 174.8 C-249.94 173.31 -249.94 173.31 -252.94 172.31 C-253.05 171.58 -253.15 170.85 -253.27 170.09 C-253.98 167.14 -255 165.38 -256.69 162.88 C-267.88 144.8 -269.61 122.39 -265 101.96 C-263.45 96.65 -261.43 91.63 -259.24 86.55 C-257.94 83.31 -257.94 83.31 -257.41 80.55 C-256.69 77.17 -254.38 75.64 -251.94 73.31 C-251.61 72.32 -251.28 71.33 -250.94 70.31 C-249.29 68.62 -247.62 66.96 -245.94 65.31 C-243.94 62.31 -243.94 62.31 -243.01 60.36 C-241.84 58.13 -240.48 56.45 -238.81 54.56 C-238.27 53.95 -237.73 53.34 -237.18 52.7 C-236.77 52.24 -236.36 51.79 -235.94 51.31 C-236.58 50.65 -237.22 49.99 -237.88 49.31 C-240.32 45.76 -241.39 42.64 -240.94 38.31 C-238.27 32.56 -233.3 28.25 -228.94 23.75 C-228.33 23.11 -227.72 22.47 -227.09 21.81 C-226.81 21.52 -226.81 21.52 -225.4 20.06 C-223.88 18.24 -222.91 16.47 -221.94 14.31 C-218.94 14.31 -218.94 14.31 -215.94 15.31 C-215.24 16.63 -214.57 17.96 -213.94 19.31 C-212.44 21 -212.44 21 -210.68 22.68 C-210.02 23.32 -209.36 23.96 -208.68 24.62 C-207.97 25.3 -207.26 25.98 -206.52 26.68 C-205.03 28.13 -203.53 29.59 -202.03 31.05 C-199.67 33.35 -197.31 35.63 -194.93 37.91 C-192.63 40.1 -190.36 42.33 -188.09 44.55 C-187.37 45.22 -186.65 45.9 -185.92 46.59 C-182.57 49.9 -181.06 51.41 -180.39 56.2 C-180.94 59.31 -180.94 59.31 -182.5 60.88 C-183.3 61.35 -184.11 61.82 -184.94 62.31 C-190.26 66.54 -195.48 71.18 -199.94 76.31 C-199.94 76.97 -199.94 77.63 -199.94 78.31 C-202.74 79.71 -204.84 79.57 -207.94 79.31 C-209.5 78.12 -209.5 78.12 -210.94 76.31 C-211.82 75.43 -212.71 74.54 -213.62 73.62 C-214.39 72.86 -215.15 72.1 -215.94 71.31 C-229.42 83.97 -240.24 99.69 -241.22 118.68 C-241.65 132.84 -238.81 145.31 -230.94 157.31 C-228.97 158.69 -226.97 160.03 -224.94 161.31 C-224.61 162.3 -224.28 163.29 -223.94 164.31 C-222.62 165.01 -221.29 165.68 -219.94 166.31 C-219.61 166.97 -219.28 167.63 -218.94 168.31 C-217.29 169.02 -215.62 169.68 -213.94 170.31 C-211.37 171.56 -208.8 172.82 -206.24 174.09 C-195.07 178.22 -183.25 177.64 -171.52 177.65 C-169.53 177.65 -167.55 177.66 -165.56 177.67 C-161.41 177.68 -157.26 177.68 -153.11 177.68 C-147.83 177.68 -142.55 177.71 -137.28 177.74 C-133.18 177.77 -129.08 177.77 -124.98 177.77 C-123.03 177.77 -121.09 177.78 -119.15 177.8 C-108.3 177.88 -98.62 177.27 -88.18 174.17 C-85.25 173.39 -82.95 173.13 -79.94 173.31 C-79.94 172.65 -79.94 171.99 -79.94 171.31 C-77.86 169.84 -77.86 169.84 -75.12 168.25 C-74.23 167.72 -73.34 167.2 -72.42 166.65 C-69.94 165.31 -69.94 165.31 -66.94 164.31 C-66.28 163.32 -65.62 162.33 -64.94 161.31 C-64.3 161.16 -63.67 161 -63.01 160.84 C-60.34 160.16 -59.48 159.05 -57.75 156.94 C-57.24 156.33 -56.73 155.73 -56.21 155.1 C-54.94 153.31 -54.94 153.31 -53.94 150.31 C-53.62 150.18 -53.62 150.18 -52 149.5 C-49.01 147.78 -48.95 145.5 -47.94 142.31 C-46.95 141.98 -45.96 141.65 -44.94 141.31 C-43.49 139.02 -42.23 136.78 -41 134.38 C-40.65 133.7 -40.3 133.02 -39.94 132.32 C-32.1 117.01 -32.1 117.01 -33.94 111.31 C-35.32 109.72 -35.32 109.72 -36.94 108.31 C-37.9 107.15 -38.86 105.98 -39.81 104.81 C-42.26 101.91 -44.63 100.2 -47.94 98.31 C-48.27 97.32 -48.6 96.33 -48.94 95.31 C-49.6 94.32 -50.26 93.33 -50.94 92.31 C-51.27 91.32 -51.6 90.33 -51.94 89.31 C-53.21 86.02 -54.49 82.73 -55.78 79.44 C-60.08 67.81 -59.93 51.29 -55.2 39.87 C-54.78 39.03 -54.37 38.18 -53.94 37.31 C-53.72 36.84 -53.72 36.84 -52.62 34.47 C-49.67 28.6 -46.13 23.91 -41.57 19.19 C-39.94 17.31 -39.94 17.31 -38.94 14.31 C-37.6 13.98 -36.27 13.65 -34.94 13.31 C-34.61 12.32 -34.28 11.33 -33.94 10.31 C-31.39 8.83 -28.9 7.52 -26.25 6.25 C-25.54 5.9 -24.83 5.55 -24.1 5.19 C-15.83 1.14 -9.21 -0.03 0 0 Z M-10.94 1.31 C-10.94 1.64 -10.94 1.97 -10.94 2.31 C-3.35 2.31 4.24 2.31 12.06 2.31 C12.06 1.98 12.06 1.65 12.06 1.31 C4.47 1.31 -3.12 1.31 -10.94 1.31 Z M-4.94 22.31 C-4.94 22.64 -4.94 22.97 -4.94 23.31 C-1.64 23.31 1.66 23.31 5.06 23.31 C5.06 22.98 5.06 22.65 5.06 22.31 C1.76 22.31 -1.54 22.31 -4.94 22.31 Z M-8.94 23.31 C-4.94 24.31 -4.94 24.31 -4.94 24.31 Z M-206.94 77.31 C-206.94 77.64 -206.94 77.97 -206.94 78.31 C-205.29 78.31 -203.64 78.31 -201.94 78.31 C-201.94 77.98 -201.94 77.65 -201.94 77.31 C-203.59 77.31 -205.24 77.31 -206.94 77.31 Z M-31.94 112.31 C-30.94 114.31 -30.94 114.31 -30.94 114.31 Z M13.06 118.31 C17.06 119.31 17.06 119.31 17.06 119.31 Z M-197.94 178.31 C-197.94 178.64 -197.94 178.97 -197.94 179.31 C-196.29 179.31 -194.64 179.31 -192.94 179.31 C-192.94 178.98 -192.94 178.65 -192.94 178.31 C-194.59 178.31 -196.24 178.31 -197.94 178.31 Z M-100.94 178.31 C-100.94 178.64 -100.94 178.97 -100.94 179.31 C-99.29 179.31 -97.64 179.31 -95.94 179.31 C-95.94 178.98 -95.94 178.65 -95.94 178.31 C-97.59 178.31 -99.24 178.31 -100.94 178.31 Z M-189.94 179.31 C-189.94 179.64 -189.94 179.97 -189.94 180.31 C-160.9 180.31 -131.86 180.31 -101.94 180.31 C-101.94 179.98 -101.94 179.65 -101.94 179.31 C-130.98 179.31 -160.02 179.31 -189.94 179.31 Z M-201.94 202.31 C-201.94 202.97 -201.94 203.63 -201.94 204.31 C-200.29 204.31 -198.64 204.31 -196.94 204.31 C-200.81 202.31 -200.81 202.31 -201.94 202.31 Z M-91.94 202.31 C-93.92 202.64 -95.9 202.97 -97.94 203.31 C-97.94 203.64 -97.94 203.97 -97.94 204.31 C-95.63 204.31 -93.32 204.31 -90.94 204.31 C-91.27 203.65 -91.6 202.99 -91.94 202.31 Z M-193.94 204.31 C-193.94 204.64 -193.94 204.97 -193.94 205.31 C-162.59 205.31 -131.24 205.31 -98.94 205.31 C-98.94 204.98 -98.94 204.65 -98.94 204.31 C-130.29 204.31 -161.64 204.31 -193.94 204.31 Z " fill="#0EF0E7" transform="translate(372.9375,216.6875)"/>
<path d="M0 0 C1.69 2.56 1.69 2.56 3 5 C4.66 6.01 6.33 7.01 8 8 C9.39 9.21 10.73 10.47 12.04 11.77 C12.8 12.51 13.55 13.26 14.33 14.03 C15.14 14.83 15.94 15.64 16.77 16.46 C17.6 17.29 18.43 18.12 19.29 18.98 C21.05 20.73 22.81 22.49 24.56 24.24 C27.25 26.93 29.95 29.61 32.65 32.29 C34.35 33.99 36.06 35.7 37.77 37.4 C38.58 38.2 39.39 39 40.22 39.83 C40.97 40.58 41.71 41.33 42.48 42.11 C43.14 42.76 43.79 43.42 44.47 44.1 C46.1 46.12 46.55 47.47 47 50 C47.62 51.24 48.26 52.47 48.94 53.69 C53.45 62.62 53.92 71.35 51.14 80.97 C49.5 85.66 47.6 89.76 45 94 C44.73 94.68 44.46 95.36 44.19 96.06 C42.75 98.4 40.96 99.33 38.69 100.8 C35.68 102.94 33.15 105.55 30.54 108.16 C29.95 108.74 29.37 109.32 28.76 109.93 C27.53 111.15 26.3 112.38 25.07 113.62 C23.18 115.5 21.29 117.37 19.39 119.25 C18.19 120.44 16.99 121.64 15.79 122.84 C15.51 123.12 15.51 123.12 14.08 124.53 C10.11 128.54 10.11 128.54 9.48 131.09 C9 133 9 133 6.75 134.38 C6.3 134.64 6.3 134.64 4 136 C-0.64 140.67 -2.1 144.36 -2.21 150.88 C-2.24 152.05 -2.27 153.22 -2.3 154.42 C-2.35 156.87 -2.39 159.31 -2.43 161.76 C-2.61 168.74 -3.32 174.54 -6 181 C-6.27 181.88 -6.54 182.77 -6.82 183.68 C-8.57 187.12 -11.12 189.52 -13.88 192.19 C-14.14 192.45 -14.14 192.45 -15.48 193.8 C-18.18 196.46 -20.61 198.38 -24 200 C-25.61 201.43 -27.17 202.91 -28.69 204.44 C-29.48 205.22 -30.26 206 -31.07 206.81 C-33 209 -33 209 -34 212 C-41.69 213.22 -49.35 213.47 -57.12 213.72 C-58.84 213.78 -60.56 213.85 -62.27 213.93 C-64.77 214.04 -67.27 214.13 -69.76 214.21 C-70.15 214.23 -70.15 214.23 -72.09 214.33 C-75.66 214.41 -77.56 214.35 -80.42 212.1 C-80.94 211.41 -81.46 210.71 -82 210 C-82.5 209.4 -83.01 208.8 -83.53 208.18 C-83.99 207.61 -84.46 207.03 -84.94 206.44 C-87.35 203.57 -89.68 201.8 -93 200 C-93.33 199.34 -93.66 198.68 -94 198 C-95.01 197.07 -96.06 196.18 -97.12 195.31 C-106.99 187.01 -106.99 187.01 -109 183 C-110.73 181.52 -112.51 180.13 -114.31 178.73 C-116.34 176.65 -116.93 174.68 -118 172 C-119.88 169.76 -119.88 169.76 -122 167.69 C-122.7 166.99 -123.4 166.29 -124.12 165.57 C-126 164 -126 164 -128 164 C-128.74 160.68 -129.14 157.58 -129.19 154.18 C-129.21 153.26 -129.22 152.33 -129.24 151.37 C-129.29 147.14 -129.33 142.9 -129.35 138.66 C-129.37 136.44 -129.39 134.21 -129.43 131.99 C-129.49 128.76 -129.51 125.53 -129.52 122.3 C-129.55 121.32 -129.57 120.34 -129.59 119.32 C-129.57 110.35 -126.62 103.55 -120.48 97.02 C-119.21 95.79 -117.92 94.58 -116.62 93.38 C-115.34 92.16 -114.07 90.93 -112.79 89.71 C-112.15 89.1 -111.51 88.48 -110.85 87.85 C-109.1 86.1 -107.49 84.29 -105.89 82.4 C-102.59 78.56 -99.05 75 -95.45 71.45 C-94.85 70.87 -94.26 70.29 -93.65 69.69 C-91.18 67.25 -88.71 64.82 -86.23 62.4 C-84.4 60.61 -82.58 58.81 -80.76 57.02 C-80.19 56.47 -79.63 55.93 -79.05 55.36 C-76.31 52.64 -74.72 50.79 -74 47 C-73.34 47 -72.68 47 -72 47 C-71.84 46.67 -71.84 46.67 -71 45 C-69.99 44.08 -68.96 43.19 -67.9 42.33 C-63.94 38.99 -60.25 35.43 -56.57 31.77 C-55.89 31.1 -55.22 30.43 -54.52 29.74 C-53.11 28.34 -51.69 26.93 -50.28 25.52 C-48.12 23.37 -45.94 21.22 -43.77 19.08 C-42.39 17.71 -41.01 16.33 -39.63 14.96 C-39.31 14.64 -39.31 14.64 -37.66 13.03 C-37.06 12.42 -36.46 11.82 -35.85 11.2 C-35.32 10.68 -34.79 10.16 -34.25 9.62 C-32.82 7.76 -32.51 6.26 -32 4 C-22.74 -5.42 -11.08 -7.76 0 0 Z M-16 -4 C-12 -3 -12 -3 -12 -3 Z M-35.12 34.63 C-35.87 35.38 -36.61 36.14 -37.38 36.91 C-39.74 39.3 -42.09 41.71 -44.44 44.12 C-46.04 45.76 -47.65 47.38 -49.26 49.01 C-53.18 52.99 -57.1 56.99 -61 61 C-60.67 61.99 -60.34 62.98 -60 64 C-60.66 64 -61.32 64 -62 64 C-62.16 64.33 -62.16 64.33 -63 66 C-63.33 65.84 -63.33 65.84 -65 65 C-65.18 65.21 -65.18 65.21 -66.08 66.3 C-71.96 73.2 -78.43 79.5 -84.88 85.88 C-87.15 88.12 -89.41 90.37 -91.68 92.62 C-92.2 93.13 -92.72 93.64 -93.25 94.17 C-96.62 97.51 -98.23 99.63 -98.78 104.34 C-98.69 111.09 -94.46 114.73 -89.94 119.16 C-88.78 120.28 -87.61 121.39 -86.44 122.5 C-85.25 123.67 -84.07 124.84 -82.88 126.01 C-79.77 129.07 -76.64 132.11 -73.49 135.14 C-70.29 138.23 -67.11 141.35 -63.93 144.47 C-60.36 147.97 -56.79 151.47 -53.19 154.95 C-52.65 155.48 -52.11 156 -51.55 156.55 C-50.08 157.97 -48.6 159.39 -47.13 160.81 C-44.05 163.97 -43.49 166.32 -43.51 170.77 C-44.31 174.41 -46.61 176.54 -49.18 179.14 C-51.02 181.02 -52.62 182.75 -54 185 C-52.72 191.28 -52.72 191.28 -51 193 C-47.49 193.82 -44.51 193.84 -41 193 C-35.99 189.33 -31.28 185.24 -30 179 C-27.46 176.73 -24.84 174.89 -22 173 C-18.73 165.25 -19.61 156.4 -19.52 148.14 C-19.5 146.93 -19.47 145.71 -19.44 144.46 C-19.43 143.37 -19.41 142.27 -19.4 141.14 C-18.7 135.64 -16.24 131.85 -12.25 128.12 C-9.59 125.63 -7.14 123.04 -4.77 120.27 C-0.22 115.03 4.73 110.22 9.68 105.36 C13.8 101.29 17.7 97.12 21.47 92.73 C23.29 90.67 25.27 88.84 27.31 87 C31.23 83.1 32.56 80.54 33 75 C31 68.58 27.33 64.75 22.56 60.12 C22.23 59.79 22.23 59.79 20.54 58.08 C15.09 52.7 15.09 52.7 11 52 C10.9 51.38 10.79 50.76 10.69 50.12 C10 48 10 48 7 46 C6.34 45.67 5.68 45.34 5 45 C4.5 44.32 4.01 43.64 3.5 42.94 C3 42.3 2.51 41.66 2 41 C1.34 41 0.68 41 0 41 C-2 38 -2 38 -2.9 36.07 C-5.29 31.57 -9.25 27.08 -14.06 25.19 C-23.78 23.66 -28.82 28.11 -35.12 34.63 Z M-114 176 C-113 178 -113 178 -113 178 Z M-55 185 C-55 187.31 -55 189.62 -55 192 C-54.67 192 -54.34 192 -54 192 C-54 189.69 -54 187.38 -54 185 C-54.33 185 -54.66 185 -55 185 Z " fill="#0EF1EC" transform="translate(282,58)"/>
<path d="M0 0 C4.11 2.39 6.14 4.39 7.45 9.05 C8.15 10.29 8.86 11.52 9.57 12.74 C12.32 18.25 12.55 23.67 10.64 29.52 C9.68 31.76 8.62 33.9 7.45 36.05 C6.93 37.04 6.41 38.03 5.88 39.05 C4.45 41.05 4.45 41.05 1.45 42.05 C0.89 42.4 0.33 42.74 -0.24 43.1 C-3.64 44.5 -7 44.38 -10.62 44.37 C-10.98 44.38 -10.98 44.38 -12.8 44.42 C-18.05 44.42 -18.05 44.42 -20.36 42.73 C-20.76 42.18 -21.15 41.62 -21.55 41.05 C-22.05 40.56 -22.54 40.06 -23.05 39.55 C-28.61 33.56 -30.91 27.7 -30.62 19.49 C-30 14.5 -28.29 11.54 -25.04 7.77 C-23.55 6.05 -23.55 6.05 -21.99 3.18 C-17.75 -3.09 -6.35 -2.35 0 0 Z M-15.55 0.05 C-15.55 0.38 -15.55 0.71 -15.55 1.05 C-11.59 1.05 -7.63 1.05 -3.55 1.05 C-3.55 0.72 -3.55 0.39 -3.55 0.05 C-7.51 0.05 -11.47 0.05 -15.55 0.05 Z " fill="#E26423" transform="translate(382.5546875,255.9453125)"/>
<path d="M0 0 C3.31 -0.31 3.31 -0.31 7 0 C8.06 1.63 9.05 3.3 10 5 C11.36 6.45 12.78 7.86 14.23 9.21 C15.03 9.98 15.84 10.75 16.66 11.54 C18.35 13.14 20.05 14.74 21.75 16.32 C22.55 17.09 23.35 17.86 24.17 18.65 C24.54 19 24.54 19 26.4 20.75 C28.49 23.69 28.37 25.46 28 29 C26.94 32.31 26.94 32.31 25 35 C21.56 36.12 21.56 36.12 18 36 C15.94 34.5 15.94 34.5 14 32 C11.2 28.53 8.74 25.49 5 23 C1.26 20.5 -1.65 17.86 -4 14 C-4.79 8.93 -3.95 6.13 -1 2 C-0.67 1.34 -0.34 0.68 0 0 Z M18 34 C22 35 22 35 22 35 Z " fill="#0DEED0" transform="translate(235,131)"/>
<path d="M0 0 C1 1.66 2 3.33 3 5 C5.6 7.84 8.36 10.51 11.12 13.19 C12.59 14.62 14.05 16.05 15.51 17.48 C16.15 18.11 16.8 18.74 17.47 19.38 C19.57 21.6 19.97 22.75 20.31 25.81 C19.93 29.7 18.59 31.16 16 34 C16 34.33 16 34.66 16 35 C12.69 35.31 12.69 35.31 9 35 C7.94 33.37 6.95 31.7 6 30 C4.71 28.63 3.37 27.31 1.99 26.04 C1.23 25.32 0.47 24.6 -0.31 23.86 C-1.9 22.37 -3.5 20.89 -5.1 19.41 C-10.87 13.89 -10.87 13.89 -11.57 9.14 C-11.03 6.15 -10.43 3.69 -9 1 C-5.88 -0.56 -3.43 -0.36 0 0 Z M-7 1 C-7 1.33 -7 1.66 -7 2 C-5.02 2 -3.04 2 -1 2 C-1 1.67 -1 1.34 -1 1 C-2.98 1 -4.96 1 -7 1 Z " fill="#0DEED8" transform="translate(259,115)"/>
<path d="M0 0 C6.41 -0.18 9.46 0.9 14.22 5.26 C16 7.05 17.76 8.86 19.5 10.69 C20.4 11.59 21.31 12.49 22.24 13.41 C29.68 21.02 29.68 21.02 30 27 C28.62 29.75 28.62 29.75 27 32 C26.67 32.66 26.34 33.32 26 34 C25.07 33.84 24.14 33.67 23.19 33.5 C20 33 20 33 17 33 C16.75 32.42 16.5 31.84 16.24 31.24 C14.83 28.69 13.23 27.12 11.09 25.14 C10.33 24.41 9.56 23.69 8.78 22.95 C7.18 21.44 5.57 19.95 3.95 18.46 C-1.86 12.9 -1.86 12.9 -2.59 8.14 C-2.03 5.19 -1.31 2.7 0 0 Z " fill="#0DEFDC" transform="translate(217,149)"/>
<path d="M0 0 C3.18 1.01 6.17 2.08 9.19 3.5 C19.52 7.89 30.89 7.31 41.89 7.34 C44.89 7.34 47.89 7.36 50.88 7.39 C58.32 7.44 65.75 7.48 73.18 7.52 C79.49 7.55 85.79 7.59 92.1 7.64 C95.05 7.66 98 7.66 100.95 7.67 C102.76 7.69 104.56 7.7 106.37 7.71 C107.19 7.71 108.01 7.71 108.85 7.71 C112.82 7.75 115.55 8.07 119 10 C105.98 10.02 92.96 10.04 79.94 10.05 C73.89 10.06 67.85 10.06 61.8 10.08 C55.97 10.09 50.14 10.09 44.31 10.09 C42.08 10.1 39.85 10.1 37.63 10.11 C34.51 10.11 31.4 10.11 28.29 10.11 C27.36 10.12 26.43 10.12 25.47 10.12 C19.11 10.11 19.11 10.11 18 9 C17.03 8.92 16.06 8.83 15.06 8.75 C9.97 8.09 5.26 5.82 1 3 C0.67 2.01 0.34 1.02 0 0 Z " fill="#12E216" transform="translate(157,387)"/>
<path d="M0 0 C11.22 0 22.44 0 34 0 C34 0.33 34 0.66 34 1 C22.78 1 11.56 1 0 1 C0 0.67 0 0.34 0 0 Z " fill="#11E110" transform="translate(207,272)"/>
<path d="M0 0 C0 3 0 3 -2.41 5.7 C-3.43 6.7 -4.46 7.7 -5.5 8.69 C-6.02 9.2 -6.55 9.71 -7.09 10.24 C-8.39 11.5 -9.69 12.75 -11 14 C-11 11 -11 11 -8.59 8.3 C-7.57 7.3 -6.54 6.3 -5.5 5.31 C-4.98 4.8 -4.45 4.29 -3.91 3.76 C-2.61 2.5 -1.31 1.25 0 0 Z " fill="#10E210" transform="translate(172,142)"/>
<path d="M0 0 C0.33 0 0.66 0 1 0 C1 8.25 1 16.5 1 25 C0.67 25 0.34 25 0 25 C0 16.75 0 8.5 0 0 Z " fill="#10E10E" transform="translate(280,205)"/>
<path d="M0 0 C0.33 0 0.66 0 1 0 C1 7.59 1 15.18 1 23 C0.67 23 0.34 23 0 23 C0 15.41 0 7.82 0 0 Z " fill="#0FE013" transform="translate(313,266)"/>
<path d="M0 0 C0.33 0 0.66 0 1 0 C1 6.6 1 13.2 1 20 C0.67 20 0.34 20 0 20 C0 13.4 0 6.8 0 0 Z " fill="#11E110" transform="translate(104,329)"/>
<path d="M0 0 C0.33 0 0.66 0 1 0 C1 6.27 1 12.54 1 19 C0.67 19 0.34 19 0 19 C0 12.73 0 6.46 0 0 Z " fill="#11E10E" transform="translate(376,317)"/>
<path d="M0 0 C0.33 0 0.66 0 1 0 C1 6.27 1 12.54 1 19 C0.67 19 0.34 19 0 19 C0 12.73 0 6.46 0 0 Z " fill="#0EE311" transform="translate(368,316)"/>
<path d="M0 0 C0.33 0 0.66 0 1 0 C1 5.94 1 11.88 1 18 C0.67 18 0.34 18 0 18 C0 12.06 0 6.12 0 0 Z " fill="#0FE310" transform="translate(132,331)"/>
<path d="M0 0 C1.18 0.93 2.34 1.87 3.5 2.81 C4.15 3.33 4.8 3.86 5.47 4.39 C7 6 7 6 7 9 C5.83 7.88 4.66 6.75 3.5 5.62 C2.85 5 2.2 4.37 1.53 3.73 C0 2 0 2 0 0 Z " fill="#11E211" transform="translate(157,224)"/>
<path d="M0 0 C0.33 0 0.66 0 1 0 C1 4.95 1 9.9 1 15 C0.67 15 0.34 15 0 15 C0 10.05 0 5.1 0 0 Z " fill="#12E111" transform="translate(409,270)"/>
<path d="M0 0 C0 3 0 3 -1.31 4.39 C-2.88 5.59 -4.44 6.8 -6 8 C-4.56 4.63 -2.67 2.49 0 0 Z " fill="#0FE110" transform="translate(272,180)"/>
<path d="M0 0 C0.33 0 0.66 0 1 0 C1 4.29 1 8.58 1 13 C0.67 13 0.34 13 0 13 C0 8.71 0 4.42 0 0 Z " fill="#10E112" transform="translate(336,271)"/>
<path d="M0 0 C2.31 1.98 4.62 3.96 7 6 C4 6 4 6 1.81 4.12 C0 2 0 2 0 0 Z " fill="#11E212" transform="translate(269,85)"/>
<path d="M0 0 C0.33 0 0.66 0 1 0 C1 3.3 1 6.6 1 10 C0.67 10 0.34 10 0 10 C0 6.7 0 3.4 0 0 Z " fill="#14E20F" transform="translate(395,273)"/>
<path d="M0 0 C0.33 0 0.66 0 1 0 C1 3.3 1 6.6 1 10 C0.67 10 0.34 10 0 10 C0 6.7 0 3.4 0 0 Z " fill="#10E211" transform="translate(185,158)"/>
<path d="M0 0 C0.33 0 0.66 0 1 0 C1 2.97 1 5.94 1 9 C0.67 9 0.34 9 0 9 C0 6.03 0 3.06 0 0 Z " fill="#10E210" transform="translate(433,273)"/>
<path d="M0 0 C1.65 1.65 3.3 3.3 5 5 C3.06 4.19 3.06 4.19 1 3 C0.67 2.01 0.34 1.02 0 0 Z " fill="#11E310" transform="translate(298,114)"/>
<path d="M0 0 C0.33 0 0.66 0 1 0 C1 2.64 1 5.28 1 8 C0.67 8 0.34 8 0 8 C0 5.36 0 2.72 0 0 Z " fill="#0EE211" transform="translate(432,282)"/>
<path d="M0 0 C0.33 0 0.66 0 1 0 C1 2.64 1 5.28 1 8 C0.67 8 0.34 8 0 8 C0 5.36 0 2.72 0 0 Z " fill="#0FE210" transform="translate(432,265)"/>
<path d="M0 0 C0.33 0 0.66 0 1 0 C1 2.64 1 5.28 1 8 C0.67 8 0.34 8 0 8 C0 5.36 0 2.72 0 0 Z " fill="#10E20F" transform="translate(240,223)"/>
<path d="M0 0 C2.31 0 4.62 0 7 0 C7 0.33 7 0.66 7 1 C4.69 1 2.38 1 0 1 C0 0.67 0 0.34 0 0 Z " fill="#10E114" transform="translate(378,337)"/>
<path d="M0 0 C0.33 0 0.66 0 1 0 C1 2.31 1 4.62 1 7 C0.67 7 0.34 7 0 7 C0 4.69 0 2.38 0 0 Z " fill="#0FE013" transform="translate(213,154)"/>
<path d="M0 0 C2.31 0 4.62 0 7 0 C7 0.33 7 0.66 7 1 C4.69 1 2.38 1 0 1 C0 0.67 0 0.34 0 0 Z " fill="#0FE112" transform="translate(219,148)"/>
<path d="M0 0 C0.33 0 0.66 0 1 0 C1 2.31 1 4.62 1 7 C0.67 7 0.34 7 0 7 C0 4.69 0 2.38 0 0 Z " fill="#0FE113" transform="translate(246,121)"/>
<path d="M0 0 C1.32 1.32 2.64 2.64 4 4 C2.68 3.34 1.36 2.68 0 2 C0 1.34 0 0.68 0 0 Z " fill="#12E311" transform="translate(303,119)"/>
<path d="M0 0 C0.33 0 0.66 0 1 0 C1 1.98 1 3.96 1 6 C0.67 6 0.34 6 0 6 C0 4.02 0 2.04 0 0 Z " fill="#10E110" transform="translate(105,349)"/>
<path d="M0 0 C0.33 0 0.66 0 1 0 C1 1.98 1 3.96 1 6 C0.67 6 0.34 6 0 6 C0 4.02 0 2.04 0 0 Z " fill="#11E011" transform="translate(105,323)"/>
<path d="M0 0 C0.33 0 0.66 0 1 0 C1 1.98 1 3.96 1 6 C0.67 6 0.34 6 0 6 C0 4.02 0 2.04 0 0 Z " fill="#11E011" transform="translate(350,275)"/>
<path d="M0 0 C0.33 0 0.66 0 1 0 C1 1.98 1 3.96 1 6 C0.67 6 0.34 6 0 6 C0 4.02 0 2.04 0 0 Z " fill="#11E312" transform="translate(264,154)"/>
<path d="M0 0 C0.33 0 0.66 0 1 0 C1 1.98 1 3.96 1 6 C0.67 6 0.34 6 0 6 C0 4.02 0 2.04 0 0 Z " fill="#11E30F" transform="translate(280,138)"/>
<path d="M0 0 C0.33 0 0.66 0 1 0 C1 1.98 1 3.96 1 6 C0.67 6 0.34 6 0 6 C0 4.02 0 2.04 0 0 Z " fill="#10E20F" transform="translate(336,125)"/>
<path d="M0 0 C0.5 0.33 0.5 0.33 3 2 C2.67 2.66 2.34 3.32 2 4 C1.34 2.68 0.68 1.36 0 0 Z " fill="#11E110" transform="translate(289,105)"/>
<path d="M0 0 C0.33 0 0.66 0 1 0 C1 1.65 1 3.3 1 5 C0.67 5 0.34 5 0 5 C0 3.35 0 1.7 0 0 Z " fill="#10E110" transform="translate(106,355)"/>
<path d="M0 0 C0.33 0 0.66 0 1 0 C1 1.65 1 3.3 1 5 C0.67 5 0.34 5 0 5 C0 3.35 0 1.7 0 0 Z " fill="#10E312" transform="translate(133,349)"/>
<path d="M0 0 C0.33 0 0.66 0 1 0 C1 1.65 1 3.3 1 5 C0.67 5 0.34 5 0 5 C0 3.35 0 1.7 0 0 Z " fill="#10E313" transform="translate(133,326)"/>
<path d="M0 0 C0.33 0 0.66 0 1 0 C1 1.65 1 3.3 1 5 C0.67 5 0.34 5 0 5 C0 3.35 0 1.7 0 0 Z " fill="#11E111" transform="translate(106,318)"/>
<path d="M0 0 C0.99 0.99 1.98 1.98 3 3 C2.01 2.67 1.02 2.34 0 2 C0 1.34 0 0.68 0 0 Z " fill="#11DF12" transform="translate(356,292)"/>
<path d="M0 0 C0.33 0 0.66 0 1 0 C1 1.65 1 3.3 1 5 C0.67 5 0.34 5 0 5 C0 3.35 0 1.7 0 0 Z " fill="#11DF13" transform="translate(351,281)"/>
<path d="M0 0 C0.33 0 0.66 0 1 0 C1 1.65 1 3.3 1 5 C0.67 5 0.34 5 0 5 C0 3.35 0 1.7 0 0 Z " fill="#11E012" transform="translate(351,270)"/>
<path d="M0 0 C0.33 0 0.66 0 1 0 C1 1.65 1 3.3 1 5 C0.67 5 0.34 5 0 5 C0 3.35 0 1.7 0 0 Z " fill="#10DF12" transform="translate(151,212)"/>
<path d="M0 0 C0.99 0.33 1.98 0.66 3 1 C2.67 1.66 2.34 2.32 2 3 C1.34 2.01 0.68 1.02 0 0 Z " fill="#10E010" transform="translate(249,139)"/>
<path d="M0 0 C0.33 0 0.66 0 1 0 C1 1.65 1 3.3 1 5 C0.67 5 0.34 5 0 5 C0 3.35 0 1.7 0 0 Z " fill="#11E113" transform="translate(229,138)"/>
<path d="M0 0 C0.33 0 0.66 0 1 0 C1 1.65 1 3.3 1 5 C0.67 5 0.34 5 0 5 C0 3.35 0 1.7 0 0 Z " fill="#10DD10" transform="translate(312,134)"/>
<path d="M0 0 C0.33 0 0.66 0 1 0 C1 1.65 1 3.3 1 5 C0.67 5 0.34 5 0 5 C0 3.35 0 1.7 0 0 Z " fill="#0EE213" transform="translate(335,131)"/>
<path d="M0 0 C0.33 0 0.66 0 1 0 C1 1.65 1 3.3 1 5 C0.67 5 0.34 5 0 5 C0 3.35 0 1.7 0 0 Z " fill="#0FE312" transform="translate(335,120)"/>
<path d="M0 0 C0 3 0 3 0 3 Z " fill="#11E211" transform="translate(417,317)"/>
<path d="M0 0 C4 1 4 1 4 1 Z " fill="#13DF0E" transform="translate(376,300)"/>
<path d="M0 0 C1 4 1 4 1 4 Z " fill="#10E311" transform="translate(430,293)"/>
<path d="M0 0 C1 4 1 4 1 4 Z " fill="#11E012" transform="translate(315,293)"/>
<path d="M0 0 C1 4 1 4 1 4 Z " fill="#11DF12" transform="translate(314,289)"/>
<path d="M0 0 C1 4 1 4 1 4 Z " fill="#11E010" transform="translate(408,285)"/>
<path d="M0 0 C1 4 1 4 1 4 Z " fill="#10E214" transform="translate(337,284)"/>
<path d="M0 0 C1 4 1 4 1 4 Z " fill="#0FDF12" transform="translate(193,269)"/>
<path d="M0 0 C1 4 1 4 1 4 Z " fill="#10E312" transform="translate(338,264)"/>
<path d="M0 0 C1 4 1 4 1 4 Z " fill="#11E112" transform="translate(314,262)"/>
<path d="M0 0 C1 4 1 4 1 4 Z " fill="#11E10E" transform="translate(431,261)"/>
<path d="M0 0 C1 4 1 4 1 4 Z " fill="#11E011" transform="translate(130,255)"/>
<path d="M0 0 C1 4 1 4 1 4 Z " fill="#0FE212" transform="translate(279,230)"/>
<path d="M0 0 C1 4 1 4 1 4 Z " fill="#0FDE11" transform="translate(259,224)"/>
<path d="M0 0 C1 4 1 4 1 4 Z " fill="#0FDE14" transform="translate(260,196)"/>
<path d="M0 0 C1 4 1 4 1 4 Z " fill="#11DE0E" transform="translate(248,172)"/>
<path d="M0 0 C1 4 1 4 1 4 Z " fill="#12E113" transform="translate(151,169)"/>
<path d="M0 0 C1 4 1 4 1 4 Z " fill="#0FE213" transform="translate(334,136)"/>
<path d="M0 0 C1 4 1 4 1 4 Z " fill="#12E211" transform="translate(312,129)"/>
<path d="M0 0 C0.33 0.17 0.33 0.17 2 1 C1.67 1.66 1.34 2.32 1 3 C0.67 2.01 0.34 1.02 0 0 Z " fill="#12E110" transform="translate(309,125)"/>
<path d="M0 0 C1 4 1 4 1 4 Z " fill="#0FE011" transform="translate(334,116)"/>
<path d="M0 0 C3 1 3 1 3 1 Z " fill="#11E111" transform="translate(290,418)"/>
<path d="" fill="#11DF10" transform="translate(0,0)"/>
<path d="" fill="#11E111" transform="translate(0,0)"/>
<path d="" fill="#11E20F" transform="translate(0,0)"/>
<path d="" fill="#11E110" transform="translate(0,0)"/>
<path d="" fill="#10E20E" transform="translate(0,0)"/>
<path d="" fill="#0FE10F" transform="translate(0,0)"/>
<path d="" fill="#0FE210" transform="translate(0,0)"/>
<path d="" fill="#0EE314" transform="translate(0,0)"/>
<path d="" fill="#0FE413" transform="translate(0,0)"/>
<path d="" fill="#10E211" transform="translate(0,0)"/>
<path d="" fill="#10E111" transform="translate(0,0)"/>
<path d="" fill="#0EE013" transform="translate(0,0)"/>
<path d="" fill="#11E111" transform="translate(0,0)"/>
<path d="" fill="#0EE214" transform="translate(0,0)"/>
<path d="" fill="#11E210" transform="translate(0,0)"/>
<path d="" fill="#10E115" transform="translate(0,0)"/>
<path d="" fill="#10E110" transform="translate(0,0)"/>
<path d="" fill="#0FE111" transform="translate(0,0)"/>
<path d="" fill="#10E111" transform="translate(0,0)"/>
<path d="" fill="#10E212" transform="translate(0,0)"/>
<path d="M0 0 C3 1 3 1 3 1 Z " fill="#15DD0F" transform="translate(367,300)"/>
<path d="" fill="#10E10F" transform="translate(0,0)"/>
<path d="" fill="#11DF11" transform="translate(0,0)"/>
<path d="" fill="#10E310" transform="translate(0,0)"/>
<path d="" fill="#10E00F" transform="translate(0,0)"/>
<path d="" fill="#14E10F" transform="translate(0,0)"/>
<path d="" fill="#0FE316" transform="translate(0,0)"/>
<path d="" fill="#12E113" transform="translate(0,0)"/>
<path d="" fill="#11DF13" transform="translate(0,0)"/>
<path d="" fill="#12E113" transform="translate(0,0)"/>
<path d="" fill="#10DF11" transform="translate(0,0)"/>
<path d="" fill="#10E10F" transform="translate(0,0)"/>
<path d="" fill="#10DF11" transform="translate(0,0)"/>
<path d="" fill="#10E211" transform="translate(0,0)"/>
<path d="" fill="#12E111" transform="translate(0,0)"/>
<path d="" fill="#10E012" transform="translate(0,0)"/>
<path d="" fill="#0FE511" transform="translate(0,0)"/>
<path d="M0 0 C0.66 0 1.32 0 2 0 C1.67 0.66 1.34 1.32 1 2 C0.67 1.34 0.34 0.68 0 0 Z " fill="#11E50F" transform="translate(247,137)"/>
<path d="M0 0 C0.66 0.66 1.32 1.32 2 2 C1.34 2 0.68 2 0 2 C0 1.34 0 0.68 0 0 Z " fill="#11E412" transform="translate(307,123)"/>
<path d="M0 0 C0.66 0.66 1.32 1.32 2 2 C1.34 2 0.68 2 0 2 C0 1.34 0 0.68 0 0 Z " fill="#13E311" transform="translate(296,112)"/>
<path d="M0 0 C0.66 0.66 1.32 1.32 2 2 C1.34 2 0.68 2 0 2 C0 1.34 0 0.68 0 0 Z " fill="#13E513" transform="translate(276,92)"/>
<path d="M0 0 C2 1 2 1 2 1 Z " fill="#11E212" transform="translate(161,418)"/>
<path d="M0 0 C2 1 2 1 2 1 Z " fill="#12E211" transform="translate(144,410)"/>
<path d="" fill="#11E011" transform="translate(0,0)"/>
<path d="M0 0 C2 1 2 1 2 1 Z " fill="#10E210" transform="translate(291,389)"/>
<path d="" fill="#12E111" transform="translate(0,0)"/>
<path d="" fill="#0FDF12" transform="translate(0,0)"/>
<path d="" fill="#11E215" transform="translate(0,0)"/>
<path d="" fill="#11E00E" transform="translate(0,0)"/>
<path d="" fill="#0FE111" transform="translate(0,0)"/>
<path d="" fill="#11DF10" transform="translate(0,0)"/>
<path d="" fill="#12DE12" transform="translate(0,0)"/>
<path d="" fill="#0FE110" transform="translate(0,0)"/>
<path d="" fill="#11E40E" transform="translate(0,0)"/>
<path d="" fill="#11E215" transform="translate(0,0)"/>
<path d="" fill="#11E311" transform="translate(0,0)"/>
<path d="" fill="#10E111" transform="translate(0,0)"/>
<path d="" fill="#10E312" transform="translate(0,0)"/>
<path d="" fill="#11E20F" transform="translate(0,0)"/>
<path d="" fill="#10E112" transform="translate(0,0)"/>
<path d="" fill="#0FE20F" transform="translate(0,0)"/>
<path d="" fill="#10E114" transform="translate(0,0)"/>
<path d="" fill="#10E011" transform="translate(0,0)"/>
<path d="" fill="#0FE111" transform="translate(0,0)"/>
<path d="" fill="#11E210" transform="translate(0,0)"/>
<path d="" fill="#10E414" transform="translate(0,0)"/>
<path d="" fill="#11E110" transform="translate(0,0)"/>
<path d="" fill="#0FE00F" transform="translate(0,0)"/>
<path d="" fill="#12E10F" transform="translate(0,0)"/>
<path d="" fill="#0EE113" transform="translate(0,0)"/>
<path d="" fill="#10E010" transform="translate(0,0)"/>
<path d="" fill="#10E112" transform="translate(0,0)"/>
<path d="" fill="#10E113" transform="translate(0,0)"/>
<path d="" fill="#0FDF14" transform="translate(0,0)"/>
<path d="" fill="#12E214" transform="translate(0,0)"/>
<path d="" fill="#11E315" transform="translate(0,0)"/>
<path d="" fill="#10E410" transform="translate(0,0)"/>
<path d="" fill="#12E111" transform="translate(0,0)"/>
<path d="" fill="#13E212" transform="translate(0,0)"/>
<path d="" fill="#11E013" transform="translate(0,0)"/>
<path d="M0 0 C2 1 2 1 2 1 Z " fill="#10E311" transform="translate(403,329)"/>
<path d="" fill="#0FE40F" transform="translate(0,0)"/>
<path d="" fill="#10E210" transform="translate(0,0)"/>
<path d="" fill="#11E316" transform="translate(0,0)"/>
<path d="" fill="#10E213" transform="translate(0,0)"/>
<path d="" fill="#10E214" transform="translate(0,0)"/>
<path d="" fill="#10E112" transform="translate(0,0)"/>
<path d="" fill="#10E211" transform="translate(0,0)"/>
<path d="" fill="#11E311" transform="translate(0,0)"/>
<path d="" fill="#0FDF13" transform="translate(0,0)"/>
<path d="" fill="#10E113" transform="translate(0,0)"/>
<path d="" fill="#12DF11" transform="translate(0,0)"/>
<path d="" fill="#10E112" transform="translate(0,0)"/>
<path d="" fill="#0FE114" transform="translate(0,0)"/>
<path d="" fill="#11E010" transform="translate(0,0)"/>
<path d="" fill="#12E210" transform="translate(0,0)"/>
<path d="" fill="#10E511" transform="translate(0,0)"/>
<path d="" fill="#10E011" transform="translate(0,0)"/>
<path d="" fill="#10DF10" transform="translate(0,0)"/>
<path d="" fill="#12E10E" transform="translate(0,0)"/>
<path d="" fill="#0FE118" transform="translate(0,0)"/>
<path d="" fill="#10E013" transform="translate(0,0)"/>
<path d="" fill="#10E00F" transform="translate(0,0)"/>
<path d="" fill="#11DF11" transform="translate(0,0)"/>
<path d="" fill="#0EE10F" transform="translate(0,0)"/>
<path d="" fill="#10DE12" transform="translate(0,0)"/>
<path d="" fill="#0FE010" transform="translate(0,0)"/>
<path d="" fill="#12E112" transform="translate(0,0)"/>
<path d="" fill="#11E40E" transform="translate(0,0)"/>
<path d="" fill="#11E110" transform="translate(0,0)"/>
<path d="" fill="#11E10E" transform="translate(0,0)"/>
<path d="" fill="#13DF12" transform="translate(0,0)"/>
<path d="" fill="#11E20E" transform="translate(0,0)"/>
<path d="" fill="#14E111" transform="translate(0,0)"/>
<path d="" fill="#12E214" transform="translate(0,0)"/>
<path d="M0 0 C2 1 2 1 2 1 Z " fill="#10E012" transform="translate(242,271)"/>
<path d="" fill="#13E10D" transform="translate(0,0)"/>
<path d="" fill="#15E012" transform="translate(0,0)"/>
<path d="" fill="#16E10E" transform="translate(0,0)"/>
<path d="" fill="#13DE12" transform="translate(0,0)"/>
<path d="" fill="#14E10D" transform="translate(0,0)"/>
<path d="" fill="#11E311" transform="translate(0,0)"/>
<path d="" fill="#11E213" transform="translate(0,0)"/>
<path d="" fill="#0FE013" transform="translate(0,0)"/>
<path d="" fill="#10E315" transform="translate(0,0)"/>
<path d="" fill="#11E413" transform="translate(0,0)"/>
<path d="" fill="#10E011" transform="translate(0,0)"/>
<path d="" fill="#10E312" transform="translate(0,0)"/>
<path d="" fill="#14E212" transform="translate(0,0)"/>
<path d="" fill="#10E111" transform="translate(0,0)"/>
<path d="" fill="#10E211" transform="translate(0,0)"/>
<path d="" fill="#0FE311" transform="translate(0,0)"/>
<path d="" fill="#10E012" transform="translate(0,0)"/>
<path d="" fill="#0FE10F" transform="translate(0,0)"/>
<path d="" fill="#10E114" transform="translate(0,0)"/>
<path d="" fill="#11E110" transform="translate(0,0)"/>
<path d="" fill="#10E012" transform="translate(0,0)"/>
<path d="" fill="#12E111" transform="translate(0,0)"/>
<path d="" fill="#10E20F" transform="translate(0,0)"/>
<path d="" fill="#13E212" transform="translate(0,0)"/>
<path d="" fill="#11E012" transform="translate(0,0)"/>
<path d="" fill="#0FDF14" transform="translate(0,0)"/>
<path d="" fill="#0FE016" transform="translate(0,0)"/>
<path d="" fill="#0FE10F" transform="translate(0,0)"/>
<path d="" fill="#12E214" transform="translate(0,0)"/>
<path d="" fill="#0FE313" transform="translate(0,0)"/>
<path d="" fill="#11DE13" transform="translate(0,0)"/>
<path d="" fill="#12E013" transform="translate(0,0)"/>
<path d="" fill="#11E40F" transform="translate(0,0)"/>
<path d="" fill="#11E00D" transform="translate(0,0)"/>
<path d="" fill="#13E114" transform="translate(0,0)"/>
<path d="" fill="#12E210" transform="translate(0,0)"/>
<path d="" fill="#12E211" transform="translate(0,0)"/>
<path d="" fill="#0FE010" transform="translate(0,0)"/>
<path d="" fill="#11E313" transform="translate(0,0)"/>
<path d="" fill="#0FE017" transform="translate(0,0)"/>
<path d="" fill="#13E210" transform="translate(0,0)"/>
<path d="" fill="#10E211" transform="translate(0,0)"/>
<path d="" fill="#10E212" transform="translate(0,0)"/>
<path d="" fill="#0FE315" transform="translate(0,0)"/>
<path d="" fill="#10E40E" transform="translate(0,0)"/>
<path d="" fill="#11E515" transform="translate(0,0)"/>
<path d="" fill="#11E011" transform="translate(0,0)"/>
<path d="" fill="#12E410" transform="translate(0,0)"/>
<path d="" fill="#11E212" transform="translate(0,0)"/>
<path d="" fill="#0FE212" transform="translate(0,0)"/>
<path d="" fill="#10E310" transform="translate(0,0)"/>
<path d="" fill="#0FE50D" transform="translate(0,0)"/>
<path d="" fill="#0DE312" transform="translate(0,0)"/>
<path d="" fill="#0EE110" transform="translate(0,0)"/>
<path d="" fill="#11E311" transform="translate(0,0)"/>
<path d="" fill="#12E213" transform="translate(0,0)"/>
<path d="" fill="#11E112" transform="translate(0,0)"/>
<path d="" fill="#10E313" transform="translate(0,0)"/>
<path d="" fill="#10E214" transform="translate(0,0)"/>
<path d="" fill="#10E214" transform="translate(0,0)"/>
<path d="" fill="#12E216" transform="translate(0,0)"/>
<path d="" fill="#11E213" transform="translate(0,0)"/>
<path d="" fill="#10E112" transform="translate(0,0)"/>
<path d="" fill="#11E114" transform="translate(0,0)"/>
<path d="" fill="#12DF12" transform="translate(0,0)"/>
<path d="" fill="#10E010" transform="translate(0,0)"/>
<path d="" fill="#10DE10" transform="translate(0,0)"/>
<path d="" fill="#10E012" transform="translate(0,0)"/>
<path d="" fill="#11E210" transform="translate(0,0)"/>
<path d="" fill="#0FE312" transform="translate(0,0)"/>
<path d="" fill="#10E314" transform="translate(0,0)"/>
<path d="" fill="#11E211" transform="translate(0,0)"/>
<path d="" fill="#10E314" transform="translate(0,0)"/>
<path d="" fill="#10E012" transform="translate(0,0)"/>
<path d="" fill="#10E013" transform="translate(0,0)"/>
<path d="" fill="#10DF12" transform="translate(0,0)"/>
<path d="" fill="#11E212" transform="translate(0,0)"/>
<path d="" fill="#0FE015" transform="translate(0,0)"/>
<path d="" fill="#12E112" transform="translate(0,0)"/>
<path d="" fill="#11E111" transform="translate(0,0)"/>
<path d="" fill="#0FE113" transform="translate(0,0)"/>
<path d="" fill="#12E30E" transform="translate(0,0)"/>
<path d="" fill="#10DD11" transform="translate(0,0)"/>
<path d="" fill="#0FE219" transform="translate(0,0)"/>
<path d="" fill="#11E314" transform="translate(0,0)"/>
<path d="" fill="#10E212" transform="translate(0,0)"/>
<path d="" fill="#13E213" transform="translate(0,0)"/>
<path d="" fill="#0FE014" transform="translate(0,0)"/>
<path d="" fill="#12E115" transform="translate(0,0)"/>
<path d="" fill="#11E310" transform="translate(0,0)"/>
<path d="" fill="#11E112" transform="translate(0,0)"/>
<path d="" fill="#10E214" transform="translate(0,0)"/>
<path d="" fill="#10E211" transform="translate(0,0)"/>
<path d="" fill="#12E216" transform="translate(0,0)"/>
<path d="" fill="#11E016" transform="translate(0,0)"/>
<path d="" fill="#0FE013" transform="translate(0,0)"/>
<path d="" fill="#11E313" transform="translate(0,0)"/>
<path d="" fill="#10E317" transform="translate(0,0)"/>
<path d="" fill="#12E111" transform="translate(0,0)"/>
<path d="" fill="#10E215" transform="translate(0,0)"/>
<path d="" fill="#11E216" transform="translate(0,0)"/>
<path d="" fill="#10E316" transform="translate(0,0)"/>
<path d="" fill="#11E112" transform="translate(0,0)"/>
<path d="" fill="#0FE115" transform="translate(0,0)"/>
<path d="" fill="#0FE114" transform="translate(0,0)"/>
<path d="" fill="#10E210" transform="translate(0,0)"/>
<path d="" fill="#11E10F" transform="translate(0,0)"/>
<path d="" fill="#11E211" transform="translate(0,0)"/>
<path d="" fill="#14E413" transform="translate(0,0)"/>
<path d="" fill="#0FDC11" transform="translate(0,0)"/>
<path d="" fill="#0FDE13" transform="translate(0,0)"/>
<path d="" fill="#10E415" transform="translate(0,0)"/>
<path d="" fill="#10E416" transform="translate(0,0)"/>
<path d="" fill="#10E411" transform="translate(0,0)"/>
<path d="" fill="#11E211" transform="translate(0,0)"/>
<path d="" fill="#12E012" transform="translate(0,0)"/>
<path d="" fill="#10E013" transform="translate(0,0)"/>
<path d="" fill="#10E312" transform="translate(0,0)"/>
<path d="" fill="#10E311" transform="translate(0,0)"/>
<path d="" fill="#0FE114" transform="translate(0,0)"/>
<path d="" fill="#13E516" transform="translate(0,0)"/>
<path d="" fill="#10E515" transform="translate(0,0)"/>
<path d="" fill="#11E312" transform="translate(0,0)"/>
<path d="" fill="#0FE111" transform="translate(0,0)"/>
<path d="" fill="#11E118" transform="translate(0,0)"/>
<path d="" fill="#13E314" transform="translate(0,0)"/>
<path d="" fill="#12E115" transform="translate(0,0)"/>
<path d="" fill="#11E410" transform="translate(0,0)"/>
<path d="" fill="#0CE213" transform="translate(0,0)"/>
<path d="" fill="#10E211" transform="translate(0,0)"/>
<path d="" fill="#12E60F" transform="translate(0,0)"/>
<path d="" fill="#10E315" transform="translate(0,0)"/>
<path d="" fill="#10DF15" transform="translate(0,0)"/>
<path d="" fill="#0FE015" transform="translate(0,0)"/>
<path d="" fill="#10E812" transform="translate(0,0)"/>
<path d="" fill="#11E112" transform="translate(0,0)"/>
<path d="" fill="#10E112" transform="translate(0,0)"/>
<path d="" fill="#11E213" transform="translate(0,0)"/>
<path d="" fill="#11E012" transform="translate(0,0)"/>
<path d="" fill="#10E20F" transform="translate(0,0)"/>
<path d="" fill="#15DD0F" transform="translate(0,0)"/>
<path d="" fill="#13E112" transform="translate(0,0)"/>
<path d="" fill="#15E010" transform="translate(0,0)"/>
<path d="" fill="#10E211" transform="translate(0,0)"/>
<path d="" fill="#13E110" transform="translate(0,0)"/>
<path d="" fill="#11E116" transform="translate(0,0)"/>
<path d="" fill="#12E10E" transform="translate(0,0)"/>
<path d="" fill="#10E113" transform="translate(0,0)"/>
<path d="" fill="#13E00E" transform="translate(0,0)"/>
<path d="" fill="#10E011" transform="translate(0,0)"/>
<path d="" fill="#10E312" transform="translate(0,0)"/>
<path d="" fill="#13E112" transform="translate(0,0)"/>
<path d="" fill="#11E10F" transform="translate(0,0)"/>
<path d="" fill="#11E013" transform="translate(0,0)"/>
<path d="" fill="#11DE12" transform="translate(0,0)"/>
<path d="" fill="#13E114" transform="translate(0,0)"/>
<path d="" fill="#13DF15" transform="translate(0,0)"/>
<path d="" fill="#10E112" transform="translate(0,0)"/>
<path d="" fill="#11E412" transform="translate(0,0)"/>
<path d="" fill="#11E015" transform="translate(0,0)"/>
<path d="" fill="#12DD14" transform="translate(0,0)"/>
<path d="" fill="#0FE315" transform="translate(0,0)"/>
<path d="" fill="#12E713" transform="translate(0,0)"/>
<path d="" fill="#12E113" transform="translate(0,0)"/>
<path d="" fill="#13E111" transform="translate(0,0)"/>
<path d="" fill="#10E30F" transform="translate(0,0)"/>
<path d="" fill="#10E314" transform="translate(0,0)"/>
<path d="" fill="#12E613" transform="translate(0,0)"/>
<path d="" fill="#10E215" transform="translate(0,0)"/>
<path d="" fill="#12E311" transform="translate(0,0)"/>
<path d="" fill="#11E213" transform="translate(0,0)"/>
<path d="" fill="#10DF19" transform="translate(0,0)"/>
<path d="" fill="#10E116" transform="translate(0,0)"/>
<path d="" fill="#11E014" transform="translate(0,0)"/>
<path d="" fill="#10E014" transform="translate(0,0)"/>
<path d="" fill="#12E113" transform="translate(0,0)"/>
<path d="" fill="#10E215" transform="translate(0,0)"/>
<path d="" fill="#11E414" transform="translate(0,0)"/>
<path d="" fill="#11E314" transform="translate(0,0)"/>
<path d="" fill="#12E014" transform="translate(0,0)"/>
<path d="" fill="#0FE113" transform="translate(0,0)"/>
<path d="" fill="#10E112" transform="translate(0,0)"/>
<path d="" fill="#11E214" transform="translate(0,0)"/>
<path d="" fill="#10E213" transform="translate(0,0)"/>
<path d="" fill="#12E115" transform="translate(0,0)"/>
<path d="" fill="#11E314" transform="translate(0,0)"/>
<path d="" fill="#0EE315" transform="translate(0,0)"/>
<path d="" fill="#10E512" transform="translate(0,0)"/>
<path d="" fill="#10E710" transform="translate(0,0)"/>
<path d="" fill="#18DF12" transform="translate(0,0)"/>
<path d="" fill="#10E515" transform="translate(0,0)"/>
<path d="" fill="#12DF10" transform="translate(0,0)"/>
<path d="" fill="#12E712" transform="translate(0,0)"/>
<path d="" fill="#13E112" transform="translate(0,0)"/>
<path d="" fill="#12E614" transform="translate(0,0)"/>
<path d="" fill="#13E411" transform="translate(0,0)"/>
<path d="" fill="#10E111" transform="translate(0,0)"/>
<path d="" fill="#14DD12" transform="translate(0,0)"/>
<path d="" fill="#16E110" transform="translate(0,0)"/>
<path d="" fill="#12E518" transform="translate(0,0)"/>
<path d="" fill="#12E711" transform="translate(0,0)"/>
<path d="" fill="#11E210" transform="translate(0,0)"/>
<path d="" fill="#12DD12" transform="translate(0,0)"/>
<path d="" fill="#15DE11" transform="translate(0,0)"/>
<path d="" fill="#10E219" transform="translate(0,0)"/>
<path d="" fill="#12E811" transform="translate(0,0)"/>
<path d="" fill="#12E110" transform="translate(0,0)"/>
<path d="" fill="#12E013" transform="translate(0,0)"/>
<path d="" fill="#15DC10" transform="translate(0,0)"/>
<path d="" fill="#10E215" transform="translate(0,0)"/>
<path d="" fill="#12E212" transform="translate(0,0)"/>
<path d="" fill="#11DD11" transform="translate(0,0)"/>
<path d="" fill="#12E113" transform="translate(0,0)"/>
<path d="" fill="#11E114" transform="translate(0,0)"/>
<path d="" fill="#15E310" transform="translate(0,0)"/>
<path d="" fill="#12DD0E" transform="translate(0,0)"/>
<path d="" fill="#12E316" transform="translate(0,0)"/>
<path d="" fill="#10DB11" transform="translate(0,0)"/>
<path d="" fill="#10DE10" transform="translate(0,0)"/>
<path d="" fill="#16E410" transform="translate(0,0)"/>
<path d="" fill="#10DE0D" transform="translate(0,0)"/>
<path d="" fill="#0FE219" transform="translate(0,0)"/>
<path d="" fill="#0FDB0E" transform="translate(0,0)"/>
<path d="" fill="#12E610" transform="translate(0,0)"/>
<path d="" fill="#16DB10" transform="translate(0,0)"/>
<path d="" fill="#10E116" transform="translate(0,0)"/>
<path d="" fill="#11DE0F" transform="translate(0,0)"/>
<path d="" fill="#13E910" transform="translate(0,0)"/>
<path d="" fill="#11E115" transform="translate(0,0)"/>
<path d="" fill="#11E60F" transform="translate(0,0)"/>
<path d="" fill="#0FE21A" transform="translate(0,0)"/>
<path d="" fill="#12E710" transform="translate(0,0)"/>
<path d="" fill="#0FE417" transform="translate(0,0)"/>
<path d="" fill="#11E20F" transform="translate(0,0)"/>
<path d="" fill="#12E415" transform="translate(0,0)"/>
<path d="" fill="#12E215" transform="translate(0,0)"/>
<path d="" fill="#12E711" transform="translate(0,0)"/>
<path d="" fill="#0FDD11" transform="translate(0,0)"/>
<path d="" fill="#13E412" transform="translate(0,0)"/>
<path d="" fill="#10E218" transform="translate(0,0)"/>
<path d="" fill="#10DD11" transform="translate(0,0)"/>
<path d="" fill="#0FE016" transform="translate(0,0)"/>
<path d="" fill="#11E111" transform="translate(0,0)"/>
<path d="" fill="#11E410" transform="translate(0,0)"/>
<path d="" fill="#11E118" transform="translate(0,0)"/>
<path d="" fill="#12E60F" transform="translate(0,0)"/>
<path d="" fill="#12E217" transform="translate(0,0)"/>
<path d="" fill="#13E80F" transform="translate(0,0)"/>
<path d="" fill="#12E212" transform="translate(0,0)"/>
<path d="" fill="#12E316" transform="translate(0,0)"/>
<path d="" fill="#12E40F" transform="translate(0,0)"/>
<path d="" fill="#11E110" transform="translate(0,0)"/>
<path d="" fill="#12E318" transform="translate(0,0)"/>
<path d="" fill="#0DE315" transform="translate(0,0)"/>
<path d="" fill="#0FDF11" transform="translate(0,0)"/>
<path d="" fill="#10E218" transform="translate(0,0)"/>
<path d="" fill="#10E715" transform="translate(0,0)"/>
<path d="" fill="#11E012" transform="translate(0,0)"/>
<path d="" fill="#11E212" transform="translate(0,0)"/>
<path d="" fill="#11E213" transform="translate(0,0)"/>
<path d="" fill="#11E517" transform="translate(0,0)"/>
<path d="" fill="#12E111" transform="translate(0,0)"/>
<path d="" fill="#12E413" transform="translate(0,0)"/>
<path d="" fill="#11E30B" transform="translate(0,0)"/>
<path d="" fill="#0CE014" transform="translate(0,0)"/>
<path d="" fill="#10E110" transform="translate(0,0)"/>
<path d="" fill="#11E415" transform="translate(0,0)"/>
<path d="" fill="#12E011" transform="translate(0,0)"/>
<path d="" fill="#0FE112" transform="translate(0,0)"/>
<path d="" fill="#14E612" transform="translate(0,0)"/>
<path d="" fill="#11E211" transform="translate(0,0)"/>
<path d="" fill="#11E213" transform="translate(0,0)"/>
<path d="" fill="#14E812" transform="translate(0,0)"/>
<path d="" fill="#10E111" transform="translate(0,0)"/>
<path d="" fill="#0DE116" transform="translate(0,0)"/>
<path d="" fill="#11E511" transform="translate(0,0)"/>
<path d="" fill="#12E111" transform="translate(0,0)"/>
<path d="" fill="#13E013" transform="translate(0,0)"/>
<path d="" fill="#0EE215" transform="translate(0,0)"/>
<path d="" fill="#10DD1A" transform="translate(0,0)"/>
<path d="" fill="#10E311" transform="translate(0,0)"/>
<path d="" fill="#11E213" transform="translate(0,0)"/>
<path d="" fill="#12E115" transform="translate(0,0)"/>
<path d="" fill="#12E417" transform="translate(0,0)"/>
<path d="" fill="#11E314" transform="translate(0,0)"/>
<path d="" fill="#12E30D" transform="translate(0,0)"/>
<path d="" fill="#11E212" transform="translate(0,0)"/>
<path d="" fill="#12E112" transform="translate(0,0)"/>
<path d="" fill="#11E310" transform="translate(0,0)"/>
<path d="" fill="#11E415" transform="translate(0,0)"/>
<path d="" fill="#11E418" transform="translate(0,0)"/>
<path d="" fill="#12E714" transform="translate(0,0)"/>
<path d="" fill="#11E011" transform="translate(0,0)"/>
<path d="" fill="#11E014" transform="translate(0,0)"/>
<path d="" fill="#11E211" transform="translate(0,0)"/>
<path d="" fill="#11E318" transform="translate(0,0)"/>
<path d="" fill="#10E010" transform="translate(0,0)"/>
<path d="" fill="#11E113" transform="translate(0,0)"/>
<path d="" fill="#12E310" transform="translate(0,0)"/>
<path d="" fill="#10E411" transform="translate(0,0)"/>
<path d="" fill="#12E316" transform="translate(0,0)"/>
<path d="" fill="#13E511" transform="translate(0,0)"/>
<path d="" fill="#13E214" transform="translate(0,0)"/>
<path d="" fill="#12DE12" transform="translate(0,0)"/>
<path d="" fill="#11E215" transform="translate(0,0)"/>
<path d="" fill="#13E410" transform="translate(0,0)"/>
<path d="" fill="#12E316" transform="translate(0,0)"/>
<path d="" fill="#11DF12" transform="translate(0,0)"/>
<path d="" fill="#12DE16" transform="translate(0,0)"/>
<path d="" fill="#10DF10" transform="translate(0,0)"/>
<path d="" fill="#12E213" transform="translate(0,0)"/>
<path d="" fill="#12E113" transform="translate(0,0)"/>
<path d="" fill="#10DF16" transform="translate(0,0)"/>
<path d="" fill="#11DD10" transform="translate(0,0)"/>
<path d="" fill="#13E013" transform="translate(0,0)"/>
<path d="" fill="#13E015" transform="translate(0,0)"/>
<path d="" fill="#12E414" transform="translate(0,0)"/>
<path d="" fill="#13E210" transform="translate(0,0)"/>
<path d="" fill="#13E116" transform="translate(0,0)"/>
<path d="" fill="#10E313" transform="translate(0,0)"/>
<path d="" fill="#10E013" transform="translate(0,0)"/>
<path d="" fill="#12E314" transform="translate(0,0)"/>
<path d="" fill="#12E511" transform="translate(0,0)"/>
<path d="" fill="#12E414" transform="translate(0,0)"/>
<path d="" fill="#11E311" transform="translate(0,0)"/>
<path d="" fill="#13E312" transform="translate(0,0)"/>
<path d="" fill="#11DF13" transform="translate(0,0)"/>
<path d="" fill="#11E214" transform="translate(0,0)"/>
<path d="" fill="#12E312" transform="translate(0,0)"/>
<path d="" fill="#11E315" transform="translate(0,0)"/>
<path d="" fill="#12E615" transform="translate(0,0)"/>
<path d="" fill="#0FDE16" transform="translate(0,0)"/>
<path d="" fill="#10E20F" transform="translate(0,0)"/>
<path d="" fill="#10E30F" transform="translate(0,0)"/>
<path d="" fill="#12E012" transform="translate(0,0)"/>
<path d="" fill="#0FE10F" transform="translate(0,0)"/>
<path d="" fill="#0FE110" transform="translate(0,0)"/>
<path d="" fill="#11E50E" transform="translate(0,0)"/>
<path d="" fill="#11E510" transform="translate(0,0)"/>
<path d="" fill="#10E312" transform="translate(0,0)"/>
<path d="" fill="#11E410" transform="translate(0,0)"/>
<path d="" fill="#11E410" transform="translate(0,0)"/>
<path d="" fill="#10E110" transform="translate(0,0)"/>
<path d="" fill="#11E211" transform="translate(0,0)"/>
<path d="" fill="#11E310" transform="translate(0,0)"/>
<path d="" fill="#11E210" transform="translate(0,0)"/>
<path d="" fill="#10E212" transform="translate(0,0)"/>
<path d="" fill="#11E210" transform="translate(0,0)"/>
<path d="" fill="#10E310" transform="translate(0,0)"/>
<path d="" fill="#10E211" transform="translate(0,0)"/>
<path d="" fill="#11E20E" transform="translate(0,0)"/>
<path d="" fill="#11E310" transform="translate(0,0)"/>
<path d="" fill="#11E212" transform="translate(0,0)"/>
<path d="" fill="#12E211" transform="translate(0,0)"/>
<path d="" fill="#12E310" transform="translate(0,0)"/>
<path d="" fill="#11E310" transform="translate(0,0)"/>
<path d="" fill="#12E513" transform="translate(0,0)"/>
<path d="" fill="#11E110" transform="translate(0,0)"/>
<path d="" fill="#10E214" transform="translate(0,0)"/>
<path d="" fill="#11E210" transform="translate(0,0)"/>
<path d="" fill="#0FE013" transform="translate(0,0)"/>
<path d="" fill="#12E210" transform="translate(0,0)"/>
<path d="" fill="#10E010" transform="translate(0,0)"/>
<path d="" fill="#10E112" transform="translate(0,0)"/>
<path d="" fill="#11E012" transform="translate(0,0)"/>
<path d="" fill="#11E210" transform="translate(0,0)"/>
<path d="" fill="#0FE013" transform="translate(0,0)"/>
<path d="" fill="#12E311" transform="translate(0,0)"/>
<path d="" fill="#10E211" transform="translate(0,0)"/>
<path d="" fill="#11E215" transform="translate(0,0)"/>
<path d="" fill="#11E210" transform="translate(0,0)"/>
<path d="" fill="#0FE414" transform="translate(0,0)"/>
<path d="" fill="#10E211" transform="translate(0,0)"/>
<path d="" fill="#0EE113" transform="translate(0,0)"/>
<path d="" fill="#10E111" transform="translate(0,0)"/>
<path d="" fill="#13E512" transform="translate(0,0)"/>
<path d="" fill="#10E110" transform="translate(0,0)"/>
<path d="" fill="#11E512" transform="translate(0,0)"/>
<path d="" fill="#10E211" transform="translate(0,0)"/>
<path d="" fill="#10E415" transform="translate(0,0)"/>
<path d="" fill="#11E30F" transform="translate(0,0)"/>
<path d="" fill="#10E213" transform="translate(0,0)"/>
<path d="" fill="#10E110" transform="translate(0,0)"/>
<path d="" fill="#11E211" transform="translate(0,0)"/>
<path d="" fill="#11E20E" transform="translate(0,0)"/>
<path d="" fill="#0FE415" transform="translate(0,0)"/>
<path d="" fill="#10E20F" transform="translate(0,0)"/>
<path d="" fill="#10E414" transform="translate(0,0)"/>
<path d="" fill="#10E111" transform="translate(0,0)"/>
<path d="" fill="#11E413" transform="translate(0,0)"/>
<path d="" fill="#11DD16" transform="translate(0,0)"/>
<path d="" fill="#0FDB15" transform="translate(0,0)"/>
<path d="" fill="#11E110" transform="translate(0,0)"/>
<path d="" fill="#0FE314" transform="translate(0,0)"/>
<path d="" fill="#11E211" transform="translate(0,0)"/>
<path d="" fill="#0FDF1A" transform="translate(0,0)"/>
<path d="" fill="#10DE15" transform="translate(0,0)"/>
<path d="" fill="#11E310" transform="translate(0,0)"/>
<path d="" fill="#0EE214" transform="translate(0,0)"/>
<path d="" fill="#13E213" transform="translate(0,0)"/>
<path d="" fill="#0FE415" transform="translate(0,0)"/>
<path d="" fill="#11E216" transform="translate(0,0)"/>
<path d="" fill="#10E311" transform="translate(0,0)"/>
<path d="" fill="#11E115" transform="translate(0,0)"/>
<path d="" fill="#11E317" transform="translate(0,0)"/>
<path d="" fill="#12E016" transform="translate(0,0)"/>
<path d="" fill="#10E00F" transform="translate(0,0)"/>
<path d="" fill="#11E416" transform="translate(0,0)"/>
<path d="" fill="#12E313" transform="translate(0,0)"/>
<path d="" fill="#10E016" transform="translate(0,0)"/>
<path d="" fill="#10E010" transform="translate(0,0)"/>
<path d="" fill="#10E518" transform="translate(0,0)"/>
<path d="" fill="#11E213" transform="translate(0,0)"/>
<path d="" fill="#11E416" transform="translate(0,0)"/>
<path d="" fill="#10E012" transform="translate(0,0)"/>
<path d="" fill="#12E416" transform="translate(0,0)"/>
<path d="" fill="#11E314" transform="translate(0,0)"/>
<path d="" fill="#13E515" transform="translate(0,0)"/>
<path d="" fill="#10E013" transform="translate(0,0)"/>
<path d="" fill="#12E312" transform="translate(0,0)"/>
<path d="" fill="#10E412" transform="translate(0,0)"/>
<path d="" fill="#10E216" transform="translate(0,0)"/>
<path d="" fill="#10E211" transform="translate(0,0)"/>
<path d="" fill="#10E214" transform="translate(0,0)"/>
<path d="" fill="#11E112" transform="translate(0,0)"/>
<path d="" fill="#0FDF15" transform="translate(0,0)"/>
<path d="" fill="#10E311" transform="translate(0,0)"/>
<path d="" fill="#10E214" transform="translate(0,0)"/>
<path d="" fill="#12E112" transform="translate(0,0)"/>
<path d="" fill="#10DE14" transform="translate(0,0)"/>
<path d="" fill="#0FE111" transform="translate(0,0)"/>
<path d="" fill="#12E313" transform="translate(0,0)"/>
<path d="" fill="#10E214" transform="translate(0,0)"/>
<path d="" fill="#0FDD15" transform="translate(0,0)"/>
<path d="" fill="#10DF0F" transform="translate(0,0)"/>
<path d="" fill="#11E515" transform="translate(0,0)"/>
<path d="" fill="#12E211" transform="translate(0,0)"/>
<path d="" fill="#10DF10" transform="translate(0,0)"/>
<path d="" fill="#10E213" transform="translate(0,0)"/>
<path d="" fill="#0FE010" transform="translate(0,0)"/>
<path d="" fill="#0FE213" transform="translate(0,0)"/>
<path d="" fill="#12E211" transform="translate(0,0)"/>
<path d="" fill="#0EDC12" transform="translate(0,0)"/>
<path d="" fill="#11E513" transform="translate(0,0)"/>
<path d="" fill="#0FE214" transform="translate(0,0)"/>
<path d="" fill="#11E213" transform="translate(0,0)"/>
<path d="" fill="#0FE215" transform="translate(0,0)"/>
<path d="" fill="#0FDE11" transform="translate(0,0)"/>
<path d="" fill="#10E613" transform="translate(0,0)"/>
<path d="" fill="#0FE211" transform="translate(0,0)"/>
<path d="" fill="#11E311" transform="translate(0,0)"/>
<path d="" fill="#11E413" transform="translate(0,0)"/>
<path d="" fill="#0FE313" transform="translate(0,0)"/>
<path d="" fill="#10E211" transform="translate(0,0)"/>
<path d="" fill="#12E213" transform="translate(0,0)"/>
<path d="" fill="#11E912" transform="translate(0,0)"/>
<path d="" fill="#0FDF14" transform="translate(0,0)"/>
<path d="" fill="#10E114" transform="translate(0,0)"/>
<path d="" fill="#11E316" transform="translate(0,0)"/>
<path d="" fill="#11E811" transform="translate(0,0)"/>
<path d="" fill="#11DF13" transform="translate(0,0)"/>
<path d="" fill="#10E111" transform="translate(0,0)"/>
<path d="" fill="#11E30F" transform="translate(0,0)"/>
<path d="" fill="#0FE115" transform="translate(0,0)"/>
<path d="" fill="#11E413" transform="translate(0,0)"/>
<path d="" fill="#10E013" transform="translate(0,0)"/>
<path d="" fill="#10E114" transform="translate(0,0)"/>
<path d="" fill="#12E212" transform="translate(0,0)"/>
<path d="" fill="#0FE114" transform="translate(0,0)"/>
<path d="" fill="#10E013" transform="translate(0,0)"/>
<path d="" fill="#0FDF12" transform="translate(0,0)"/>
<path d="" fill="#11E214" transform="translate(0,0)"/>
<path d="" fill="#11E114" transform="translate(0,0)"/>
<path d="" fill="#14E212" transform="translate(0,0)"/>
<path d="" fill="#12E613" transform="translate(0,0)"/>
<path d="" fill="#0EDD13" transform="translate(0,0)"/>
<path d="" fill="#12E212" transform="translate(0,0)"/>
<path d="" fill="#11E315" transform="translate(0,0)"/>
<path d="" fill="#11E010" transform="translate(0,0)"/>
<path d="" fill="#10E313" transform="translate(0,0)"/>
<path d="" fill="#10E613" transform="translate(0,0)"/>
<path d="" fill="#10E012" transform="translate(0,0)"/>
<path d="" fill="#0FE111" transform="translate(0,0)"/>
<path d="" fill="#12E212" transform="translate(0,0)"/>
<path d="" fill="#11E312" transform="translate(0,0)"/>
<path d="" fill="#12E513" transform="translate(0,0)"/>
<path d="" fill="#10E111" transform="translate(0,0)"/>
<path d="" fill="#12E211" transform="translate(0,0)"/>
<path d="" fill="#10DE12" transform="translate(0,0)"/>
<path d="" fill="#11E712" transform="translate(0,0)"/>
<path d="" fill="#11E213" transform="translate(0,0)"/>
<path d="" fill="#10E216" transform="translate(0,0)"/>
<path d="" fill="#10DB12" transform="translate(0,0)"/>
<path d="" fill="#11E80F" transform="translate(0,0)"/>
<path d="" fill="#10E414" transform="translate(0,0)"/>
<path d="" fill="#10DD12" transform="translate(0,0)"/>
<path d="" fill="#10E813" transform="translate(0,0)"/>
<path d="" fill="#11E413" transform="translate(0,0)"/>
<path d="" fill="#10E112" transform="translate(0,0)"/>
<path d="" fill="#0FE214" transform="translate(0,0)"/>
<path d="" fill="#0FE315" transform="translate(0,0)"/>
<path d="" fill="#12E20F" transform="translate(0,0)"/>
<path d="" fill="#11E413" transform="translate(0,0)"/>
<path d="" fill="#0EDC11" transform="translate(0,0)"/>
<path d="" fill="#11E514" transform="translate(0,0)"/>
<path d="" fill="#11E210" transform="translate(0,0)"/>
<path d="" fill="#11E011" transform="translate(0,0)"/>
<path d="" fill="#0FDC12" transform="translate(0,0)"/>
<path d="" fill="#0FE217" transform="translate(0,0)"/>
<path d="" fill="#13E011" transform="translate(0,0)"/>
<path d="" fill="#10E111" transform="translate(0,0)"/>
<path d="" fill="#10DE12" transform="translate(0,0)"/>
<path d="" fill="#0EE115" transform="translate(0,0)"/>
<path d="" fill="#10E215" transform="translate(0,0)"/>
<path d="" fill="#13E110" transform="translate(0,0)"/>
<path d="" fill="#10E411" transform="translate(0,0)"/>
<path d="" fill="#12E311" transform="translate(0,0)"/>
<path d="" fill="#12E10F" transform="translate(0,0)"/>
<path d="" fill="#11E215" transform="translate(0,0)"/>
<path d="" fill="#0FE315" transform="translate(0,0)"/>
<path d="" fill="#13E313" transform="translate(0,0)"/>
<path d="" fill="#12E612" transform="translate(0,0)"/>
<path d="" fill="#13E711" transform="translate(0,0)"/>
<path d="" fill="#10E316" transform="translate(0,0)"/>
<path d="" fill="#14E213" transform="translate(0,0)"/>
<path d="" fill="#12E513" transform="translate(0,0)"/>
<path d="" fill="#13E611" transform="translate(0,0)"/>
<path d="" fill="#10E117" transform="translate(0,0)"/>
<path d="" fill="#11E213" transform="translate(0,0)"/>
<path d="" fill="#13E111" transform="translate(0,0)"/>
<path d="" fill="#10E212" transform="translate(0,0)"/>
<path d="" fill="#12E114" transform="translate(0,0)"/>
<path d="" fill="#0FE116" transform="translate(0,0)"/>
<path d="" fill="#12E114" transform="translate(0,0)"/>
<path d="" fill="#11E312" transform="translate(0,0)"/>
<path d="" fill="#0FDE14" transform="translate(0,0)"/>
<path d="" fill="#10E311" transform="translate(0,0)"/>
<path d="" fill="#11E215" transform="translate(0,0)"/>
<path d="" fill="#14E212" transform="translate(0,0)"/>
<path d="" fill="#0EE414" transform="translate(0,0)"/>
<path d="" fill="#0EDC13" transform="translate(0,0)"/>
<path d="" fill="#10E414" transform="translate(0,0)"/>
<path d="" fill="#11E217" transform="translate(0,0)"/>
<path d="" fill="#12E215" transform="translate(0,0)"/>
<path d="" fill="#0FE214" transform="translate(0,0)"/>
<path d="" fill="#10E014" transform="translate(0,0)"/>
<path d="" fill="#10E211" transform="translate(0,0)"/>
<path d="" fill="#11E115" transform="translate(0,0)"/>
<path d="" fill="#12E213" transform="translate(0,0)"/>
<path d="" fill="#10E114" transform="translate(0,0)"/>
<path d="" fill="#11E614" transform="translate(0,0)"/>
<path d="" fill="#11E211" transform="translate(0,0)"/>
<path d="" fill="#13E115" transform="translate(0,0)"/>
<path d="" fill="#12E213" transform="translate(0,0)"/>
<path d="" fill="#0FE913" transform="translate(0,0)"/>
<path d="" fill="#11E314" transform="translate(0,0)"/>
<path d="" fill="#0FE215" transform="translate(0,0)"/>
<path d="" fill="#12DF15" transform="translate(0,0)"/>
<path d="" fill="#10E513" transform="translate(0,0)"/>
<path d="" fill="#11E313" transform="translate(0,0)"/>
<path d="" fill="#10E314" transform="translate(0,0)"/>
<path d="" fill="#12E114" transform="translate(0,0)"/>
<path d="" fill="#11DE13" transform="translate(0,0)"/>
<path d="" fill="#11E213" transform="translate(0,0)"/>
<path d="" fill="#12E113" transform="translate(0,0)"/>
<path d="" fill="#0EDE13" transform="translate(0,0)"/>
<path d="" fill="#0FE114" transform="translate(0,0)"/>
<path d="" fill="#10E110" transform="translate(0,0)"/>
<path d="" fill="#11E314" transform="translate(0,0)"/>
<path d="" fill="#0FE014" transform="translate(0,0)"/>
<path d="" fill="#12E111" transform="translate(0,0)"/>
<path d="" fill="#12E614" transform="translate(0,0)"/>
<path d="" fill="#11E013" transform="translate(0,0)"/>
<path d="" fill="#12E210" transform="translate(0,0)"/>
<path d="" fill="#10E214" transform="translate(0,0)"/>
<path d="" fill="#10E014" transform="translate(0,0)"/>
<path d="" fill="#11E210" transform="translate(0,0)"/>
<path d="" fill="#0EDC13" transform="translate(0,0)"/>
<path d="" fill="#10E313" transform="translate(0,0)"/>
<path d="" fill="#0FDF15" transform="translate(0,0)"/>
<path d="" fill="#13E210" transform="translate(0,0)"/>
<path d="" fill="#10E311" transform="translate(0,0)"/>
<path d="" fill="#0FDB13" transform="translate(0,0)"/>
<path d="" fill="#0FDA12" transform="translate(0,0)"/>
<path d="" fill="#10E213" transform="translate(0,0)"/>
<path d="" fill="#11DF13" transform="translate(0,0)"/>
<path d="" fill="#13E210" transform="translate(0,0)"/>
<path d="" fill="#11E112" transform="translate(0,0)"/>
<path d="" fill="#0FDF13" transform="translate(0,0)"/>
<path d="" fill="#0FDA11" transform="translate(0,0)"/>
<path d="" fill="#0FE114" transform="translate(0,0)"/>
<path d="" fill="#11E113" transform="translate(0,0)"/>
<path d="" fill="#10E215" transform="translate(0,0)"/>
<path d="" fill="#11DD11" transform="translate(0,0)"/>
<path d="" fill="#11E213" transform="translate(0,0)"/>
<path d="" fill="#10E612" transform="translate(0,0)"/>
<path d="" fill="#11E013" transform="translate(0,0)"/>
<path d="" fill="#11E311" transform="translate(0,0)"/>
<path d="" fill="#0FE215" transform="translate(0,0)"/>
<path d="" fill="#11E210" transform="translate(0,0)"/>
<path d="" fill="#10E211" transform="translate(0,0)"/>
<path d="" fill="#10E413" transform="translate(0,0)"/>
<path d="" fill="#10E114" transform="translate(0,0)"/>
<path d="" fill="#11E213" transform="translate(0,0)"/>
<path d="" fill="#11E511" transform="translate(0,0)"/>
<path d="" fill="#12DD13" transform="translate(0,0)"/>
<path d="" fill="#11E112" transform="translate(0,0)"/>
<path d="" fill="#11E216" transform="translate(0,0)"/>
<path d="" fill="#11E712" transform="translate(0,0)"/>
<path d="" fill="#10DA12" transform="translate(0,0)"/>
<path d="" fill="#10E214" transform="translate(0,0)"/>
<path d="" fill="#11E310" transform="translate(0,0)"/>
<path d="" fill="#10E412" transform="translate(0,0)"/>
<path d="" fill="#11DE13" transform="translate(0,0)"/>
<path d="" fill="#10E113" transform="translate(0,0)"/>
<path d="" fill="#11E412" transform="translate(0,0)"/>
<path d="" fill="#10DC11" transform="translate(0,0)"/>
<path d="" fill="#0EE112" transform="translate(0,0)"/>
<path d="" fill="#11E212" transform="translate(0,0)"/>
<path d="" fill="#12E012" transform="translate(0,0)"/>
<path d="" fill="#11E312" transform="translate(0,0)"/>
<path d="" fill="#10E312" transform="translate(0,0)"/>
<path d="" fill="#10E111" transform="translate(0,0)"/>
<path d="" fill="#0FE311" transform="translate(0,0)"/>
<path d="" fill="#10E412" transform="translate(0,0)"/>
<path d="" fill="#0FE113" transform="translate(0,0)"/>
<path d="" fill="#10E212" transform="translate(0,0)"/>
<path d="" fill="#0FE211" transform="translate(0,0)"/>
<path d="" fill="#11E112" transform="translate(0,0)"/>
<path d="" fill="#12E311" transform="translate(0,0)"/>
<path d="" fill="#10E210" transform="translate(0,0)"/>
<path d="" fill="#0FE315" transform="translate(0,0)"/>
<path d="" fill="#10E112" transform="translate(0,0)"/>
<path d="" fill="#12E211" transform="translate(0,0)"/>
<path d="" fill="#10E113" transform="translate(0,0)"/>
<path d="" fill="#11E312" transform="translate(0,0)"/>
<path d="" fill="#12E312" transform="translate(0,0)"/>
<path d="" fill="#10E317" transform="translate(0,0)"/>
<path d="" fill="#12E513" transform="translate(0,0)"/>
<path d="" fill="#11E30F" transform="translate(0,0)"/>
<path d="" fill="#10E212" transform="translate(0,0)"/>
<path d="" fill="#0FE414" transform="translate(0,0)"/>
<path d="" fill="#11E311" transform="translate(0,0)"/>
<path d="" fill="#0FDF11" transform="translate(0,0)"/>
<path d="" fill="#12E111" transform="translate(0,0)"/>
<path d="" fill="#10E314" transform="translate(0,0)"/>
<path d="" fill="#11E214" transform="translate(0,0)"/>
<path d="" fill="#11E210" transform="translate(0,0)"/>
<path d="" fill="#0FE213" transform="translate(0,0)"/>
<path d="" fill="#10E410" transform="translate(0,0)"/>
<path d="" fill="#0FE517" transform="translate(0,0)"/>
<path d="" fill="#11E213" transform="translate(0,0)"/>
<path d="" fill="#11E614" transform="translate(0,0)"/>
<path d="" fill="#12E311" transform="translate(0,0)"/>
<path d="" fill="#11E511" transform="translate(0,0)"/>
<path d="" fill="#0FE311" transform="translate(0,0)"/>
<path d="" fill="#0FE515" transform="translate(0,0)"/>
<path d="" fill="#11E211" transform="translate(0,0)"/>
<path d="" fill="#0FE314" transform="translate(0,0)"/>
<path d="" fill="#11E20E" transform="translate(0,0)"/>
<path d="" fill="#0EE212" transform="translate(0,0)"/>
<path d="" fill="#10E315" transform="translate(0,0)"/>
<path d="" fill="#0DE314" transform="translate(0,0)"/>
<path d="" fill="#11E310" transform="translate(0,0)"/>
<path d="" fill="#0FE414" transform="translate(0,0)"/>
<path d="" fill="#12E20E" transform="translate(0,0)"/>
<path d="" fill="#12E517" transform="translate(0,0)"/>
<path d="" fill="#11E213" transform="translate(0,0)"/>
<path d="" fill="#10E30F" transform="translate(0,0)"/>
<path d="" fill="#0FE414" transform="translate(0,0)"/>
<path d="" fill="#0EE111" transform="translate(0,0)"/>
<path d="" fill="#0FE415" transform="translate(0,0)"/>
<path d="" fill="#10E316" transform="translate(0,0)"/>
<path d="" fill="#0FE312" transform="translate(0,0)"/>
<path d="" fill="#0EE415" transform="translate(0,0)"/>
<path d="" fill="#13E210" transform="translate(0,0)"/>
<path d="" fill="#10E315" transform="translate(0,0)"/>
<path d="" fill="#11E110" transform="translate(0,0)"/>
<path d="" fill="#11E310" transform="translate(0,0)"/>
<path d="" fill="#11E312" transform="translate(0,0)"/>
<path d="" fill="#11E211" transform="translate(0,0)"/>
<path d="" fill="#0EE313" transform="translate(0,0)"/>
<path d="" fill="#12E00F" transform="translate(0,0)"/>
<path d="" fill="#10E213" transform="translate(0,0)"/>
<path d="" fill="#12E011" transform="translate(0,0)"/>
<path d="" fill="#11E215" transform="translate(0,0)"/>
<path d="" fill="#12E111" transform="translate(0,0)"/>
<path d="" fill="#10E313" transform="translate(0,0)"/>
<path d="" fill="#14E212" transform="translate(0,0)"/>
<path d="" fill="#10E214" transform="translate(0,0)"/>
<path d="" fill="#13E214" transform="translate(0,0)"/>
<path d="" fill="#10E013" transform="translate(0,0)"/>
<path d="" fill="#13E211" transform="translate(0,0)"/>
<path d="" fill="#10E110" transform="translate(0,0)"/>
<path d="" fill="#12E212" transform="translate(0,0)"/>
<path d="" fill="#0EE212" transform="translate(0,0)"/>
<path d="" fill="#13E113" transform="translate(0,0)"/>
<path d="" fill="#10E115" transform="translate(0,0)"/>
<path d="" fill="#12E113" transform="translate(0,0)"/>
<path d="" fill="#12E213" transform="translate(0,0)"/>
<path d="" fill="#12E114" transform="translate(0,0)"/>
<path d="" fill="#10E214" transform="translate(0,0)"/>
<path d="" fill="#14E114" transform="translate(0,0)"/>
<path d="" fill="#11E112" transform="translate(0,0)"/>
<path d="" fill="#11E013" transform="translate(0,0)"/>
<path d="" fill="#12E011" transform="translate(0,0)"/>
<path d="" fill="#11E112" transform="translate(0,0)"/>
<path d="" fill="#10E210" transform="translate(0,0)"/>
<path d="" fill="#12E111" transform="translate(0,0)"/>
<path d="" fill="#0FE210" transform="translate(0,0)"/>
<path d="" fill="#11DF13" transform="translate(0,0)"/>
<path d="" fill="#10E014" transform="translate(0,0)"/>
<path d="" fill="#11E012" transform="translate(0,0)"/>
<path d="" fill="#12E114" transform="translate(0,0)"/>
<path d="" fill="#12DF15" transform="translate(0,0)"/>
<path d="" fill="#10E012" transform="translate(0,0)"/>
<path d="" fill="#11E113" transform="translate(0,0)"/>
<path d="" fill="#11E013" transform="translate(0,0)"/>
<path d="" fill="#0FE013" transform="translate(0,0)"/>
<path d="" fill="#11E115" transform="translate(0,0)"/>
<path d="" fill="#11E114" transform="translate(0,0)"/>
<path d="" fill="#11E114" transform="translate(0,0)"/>
<path d="" fill="#11E213" transform="translate(0,0)"/>
<path d="" fill="#12E213" transform="translate(0,0)"/>
<path d="" fill="#10E216" transform="translate(0,0)"/>
<path d="" fill="#10E215" transform="translate(0,0)"/>
<path d="" fill="#12E316" transform="translate(0,0)"/>
<path d="" fill="#12E317" transform="translate(0,0)"/>
<path d="" fill="#10E213" transform="translate(0,0)"/>
<path d="" fill="#12E314" transform="translate(0,0)"/>
<path d="" fill="#11E113" transform="translate(0,0)"/>
<path d="" fill="#10E013" transform="translate(0,0)"/>
<path d="" fill="#12E10F" transform="translate(0,0)"/>
<path d="" fill="#10E112" transform="translate(0,0)"/>
<path d="" fill="#11E310" transform="translate(0,0)"/>
<path d="" fill="#13E310" transform="translate(0,0)"/>
</svg>
